<svg width="97" height="29" viewBox="0 0 97 29" fill="none" xmlns="http://www.w3.org/2000/svg">
<g clip-path="url(#clip0_502_2)">
<path d="M92.9748 29C95.1981 29 97.0004 27.2005 97.0004 24.9806C97.0004 22.7608 95.1981 20.9612 92.9748 20.9612C90.7515 20.9612 88.9492 22.7608 88.9492 24.9806C88.9492 27.2005 90.7515 29 92.9748 29Z" fill="#1DBF73"/>
<path d="M88.9489 14.0273H85.5158C83.3055 14.0273 82.1224 15.6822 82.1224 18.4401V28.4094H75.6107V14.0273H72.8485C70.6382 14.0273 69.4552 15.6822 69.4552 18.4401V28.4094H62.9434V8.70773H69.4552V11.7025C70.5211 9.37763 71.9811 8.70773 74.1516 8.70773H82.1234V11.7025C83.1893 9.37763 84.6493 8.70773 86.8199 8.70773H88.9508V14.0273H88.9489ZM61.5221 20.0951H47.9467C48.302 22.302 49.6826 23.5625 52.011 23.5625C53.7469 23.5625 54.9706 22.853 55.3656 21.5924L61.1271 23.2077C59.7068 26.6355 56.1944 28.7245 52.011 28.7245C44.9474 28.7245 41.7108 23.2474 41.7108 18.559C41.7108 13.949 44.5524 8.43223 51.616 8.43223C59.1143 8.43223 61.6005 14.0273 61.6005 18.1646C61.6015 19.0704 61.5618 19.662 61.5221 20.0951ZM55.2078 16.2729C55.05 14.5783 53.8263 13.0026 51.617 13.0026C49.5645 13.0026 48.3417 13.9084 47.9467 16.2729H55.2078ZM30.3467 28.4094H36.0685L43.2115 8.7087H36.661L33.1882 20.1743L29.6361 8.70773H23.1243L30.3467 28.4094ZM3.67026 28.4094H10.1423V14.0273H16.2988V28.4094H22.7312V8.70773H10.1423V7.48683C10.1423 6.14703 11.0892 5.31957 12.5889 5.31957H16.2988V0H11.5239C6.8274 0 3.67026 2.8768 3.67026 7.09243V8.70773H0V14.0273H3.67026V28.4094Z" fill="black"/>
</g>
<defs>
<clipPath id="clip0_502_2">
<rect width="97" height="29" fill="white"/>
</clipPath>
</defs>
</svg>
