<svg width="402" height="402" viewBox="0 0 402 402" fill="none" xmlns="http://www.w3.org/2000/svg">
<path d="M98.9668 85.2118L83.0176 91.5915L75.9999 80.746L85.5694 67.9866L100.243 64.1588M98.9668 85.2118L106.622 72.4524M98.9668 85.2118L104.708 97.3332L121.934 95.4193M100.243 64.1588L106.622 72.4524M100.243 64.1588L109.812 50.7615L124.485 49.4856M106.622 72.4524L123.21 69.9005M121.934 95.4193L130.865 80.746M121.934 95.4193L130.865 106.265L148.728 104.351M123.21 69.9005L132.141 57.7792M123.21 69.9005L130.865 80.746M124.485 49.4856L132.141 57.7792M124.485 49.4856L134.055 38.0021L150.004 36.0882L157.022 44.3818M132.141 57.7792L148.728 56.5032M157.022 44.3818L148.728 56.5032M157.022 44.3818L172.971 43.1059M148.728 56.5032L156.384 64.7968M130.865 80.746L148.728 78.1941M172.971 43.1059L180.627 52.0374M172.971 43.1059L179.351 33.5364L195.3 32.8984M156.384 64.7968L148.728 78.1941M156.384 64.7968L174.247 64.1588M148.728 104.351L157.022 89.0396M148.728 104.351L158.298 117.11M148.728 78.1941L157.022 89.0396M174.247 64.1588L180.627 52.0374M174.247 64.1588L181.903 73.7284M157.022 89.0396L175.523 88.4016M158.298 117.11L176.799 116.472M158.298 117.11L151.28 132.421L160.212 147.095L180.627 145.819L187.644 129.232L176.799 116.472M175.523 88.4016L181.903 73.7284M175.523 88.4016L184.454 100.523M180.627 52.0374H198.49M195.3 32.8984L202.956 41.192M195.3 32.8984L200.404 25.2428M198.49 52.0374L206.783 61.607M198.49 52.0374L202.956 41.192M181.903 73.7284H200.404M200.404 73.7284L209.973 85.2118M200.404 73.7284L206.783 61.607M184.454 100.523L176.799 116.472M184.454 100.523L202.956 99.885M202.956 99.885L209.973 85.2118M202.956 99.885L211.887 112.644H231.026M209.973 85.2118H227.198M231.026 112.644L237.406 99.885M231.026 112.644L239.958 126.68M227.198 85.2118L237.406 99.885M227.198 85.2118L232.94 72.4524M206.783 61.607H223.371M223.371 61.607L232.94 72.4524M223.371 61.607L227.198 50.7615M202.956 41.192H219.543M200.404 25.2428H216.353M200.404 25.2428L192.11 18.8631M219.543 41.192L227.198 50.7615M219.543 41.192L223.371 32.8984M237.406 99.885H253.355M239.958 126.68H258.459M239.958 126.68L235.492 143.905M253.355 99.885L258.459 85.2118M253.355 99.885L263.563 112.644M232.94 72.4524H249.527M249.527 72.4524L253.355 62.8829M249.527 72.4524L258.459 85.2118M227.198 50.7615H245.061M245.061 50.7615L248.251 43.1059M245.061 50.7615L253.355 62.8829M223.371 32.8984L216.353 25.2428M223.371 32.8984H237.406M216.353 25.2428L219.543 18.8631L211.887 11.8455M237.406 32.8984L248.251 43.1059M237.406 32.8984L241.872 27.1567H254.631L261.649 33.5364M211.887 11.8455H197.214M211.887 11.8455L215.077 6.74171L205.507 1H194.024L190.196 6.74171M192.11 18.8631L197.214 11.8455M192.11 18.8631H178.713L170.419 13.1214L176.799 6.74171H190.196M197.214 11.8455L190.196 6.74171M248.251 43.1059H261.011M261.649 33.5364L261.011 43.1059M261.649 33.5364L275.684 37.3642M261.011 43.1059L269.942 53.3134M253.355 62.8829H267.39M267.39 62.8829L276.96 75.6423M267.39 62.8829L269.942 53.3134M258.459 85.2118H273.132M273.132 85.2118L283.34 99.885M273.132 85.2118L276.96 75.6423M263.563 112.644L258.459 126.68M263.563 112.644H279.512M258.459 126.68L266.114 142.629M279.512 112.644L289.081 127.956M279.512 112.644L283.34 99.885M266.114 142.629L261.011 156.664M266.114 142.629H283.977M235.492 143.905L243.148 156.664M235.492 143.905H215.715L209.335 160.492L218.267 174.527M261.011 156.664H243.148M261.011 156.664L269.942 172.613M283.977 142.629L292.271 156.664M283.977 142.629L289.081 127.956M243.148 156.664L236.768 175.165M269.942 172.613H285.891M269.942 172.613L263.563 187.925M236.768 175.165L218.267 174.527M236.768 175.165L245.699 187.925M218.267 174.527L211.887 191.114L220.181 204.512H239.958M239.958 204.512L245.699 187.925M239.958 204.512L246.975 218.547M245.699 187.925H263.563M263.563 187.925L271.856 202.598M246.975 218.547H264.2M246.975 218.547L239.958 235.772L248.251 249.17H263.563L271.218 233.22M285.891 172.613L292.271 156.664M285.891 172.613L293.547 187.925M292.271 156.664H306.306M293.547 187.925L287.167 202.598M293.547 187.925H308.22M306.306 156.664L313.324 173.251M306.306 156.664L311.41 143.905M289.081 127.956H303.117M303.117 127.956L311.41 143.905M303.117 127.956L307.582 115.196M283.34 99.885H298.651M298.651 99.885L307.582 115.196M298.651 99.885L301.841 90.9535M276.96 75.6423H290.995M290.995 75.6423L301.841 90.9535M290.995 75.6423L294.185 66.7107M269.942 53.3134L284.615 56.5032M284.615 56.5032L294.185 66.7107M284.615 56.5032L285.891 47.5717M275.684 37.3642L285.891 47.5717M275.684 37.3642L278.236 30.3465L291.633 34.1743M271.856 202.598L264.2 218.547M271.856 202.598H287.167M264.2 218.547L271.218 233.22M287.167 202.598L294.823 216.633M271.218 233.22H285.891M285.891 233.22L294.823 216.633M285.891 233.22L291.633 246.618M294.823 216.633H308.22M291.633 246.618H305.03M291.633 246.618L283.977 260.015L289.719 274.05M308.22 216.633L313.324 231.944M308.22 216.633L314.6 202.598M308.22 187.925L314.6 202.598M308.22 187.925L313.324 173.251M305.03 246.618L313.324 231.944M305.03 246.618L310.134 260.015M289.719 274.05H301.841M289.719 274.05L282.064 285.534M313.324 231.944L325.445 230.668M310.134 260.015L301.841 274.05M310.134 260.015L322.256 257.463M325.445 230.668L328.635 244.066M325.445 230.668L331.825 216.633M314.6 202.598H327.359M301.841 274.05L303.755 286.81M322.256 257.463L324.169 272.136M322.256 257.463L328.635 244.066M303.755 286.81L297.375 298.293M303.755 286.81L316.514 283.62M282.064 285.534L285.253 300.207M282.064 285.534L268.666 286.81L259.097 302.121L265.476 314.242M297.375 298.293L285.253 300.207M297.375 298.293L299.927 309.139M316.514 283.62L317.79 296.379M316.514 283.62L324.169 272.136M285.253 300.207L278.236 312.328M299.927 309.139L291.633 321.898M299.927 309.139L309.496 308.501M278.236 312.328L265.476 314.242M278.236 312.328L281.426 323.812M265.476 314.242L259.097 325.088M259.097 325.088L261.649 335.295M259.097 325.088L247.613 326.364M281.426 323.812L273.77 334.657M281.426 323.812L291.633 321.898M261.649 335.295L273.77 334.657M261.649 335.295L255.907 346.779L245.061 348.055M247.613 326.364L239.958 339.761M247.613 326.364L242.51 315.518L228.474 317.432L222.733 330.191M273.77 334.657V344.227L268.302 351.882M245.061 348.055L239.958 339.761M245.061 348.055L239.958 358.262M268.302 351.882L267.39 353.158L257.183 355.71M268.302 351.882L268.028 360.814M291.633 321.898L292.909 331.467M239.958 339.761H228.474M222.733 330.191L228.474 339.761M222.733 330.191L209.973 331.467L206.145 342.951M228.474 339.761L224.646 350.606M239.958 358.262H229.75M239.958 358.262L242.51 365.918M206.145 342.951L211.887 351.882M206.145 342.951L192.748 344.227L190.196 356.348M224.646 350.606L211.887 351.882M224.646 350.606L229.75 358.262M211.887 351.882L208.697 362.728M190.196 356.348L198.49 363.366M190.196 356.348H178.713M208.697 362.728L214.439 369.746M208.697 362.728L198.49 363.366M229.75 358.262L225.284 367.832M225.284 367.832L214.439 369.746M225.284 367.832L229.75 374.849M242.51 365.918L238.044 373.573M242.51 365.918L252.079 364.642M214.439 369.746L212.525 378.039L216.991 383.143M229.75 374.849L225.284 381.867M229.75 374.849L238.044 373.573M216.991 383.143L225.284 381.867M216.991 383.143L214.439 388.885L218.905 393.35H227.198M198.49 363.366L199.128 373.573L185.73 372.935L178.713 367.194M178.713 356.348V367.194M178.713 356.348L169.781 349.331M178.713 367.194L166.591 367.832L157.66 361.452V349.331M169.781 349.331H157.66M169.781 349.331L171.057 335.295L161.488 328.278H147.452V342.951L157.66 349.331M225.284 381.867L228.474 386.333M227.198 393.35L228.474 386.333M227.198 393.35H232.94M228.474 386.333H235.492M238.044 373.573V380.591M232.94 393.35V397.178H238.044L242.51 394.626L243.148 389.523M232.94 393.35L236.768 390.798M235.492 386.333L238.044 380.591M235.492 386.333L236.768 390.798M252.079 364.642L257.183 355.71M252.079 364.642V372.297M238.044 380.591L246.975 378.677M246.975 378.677L252.079 372.297M246.975 378.677V385.057M236.768 390.798L243.148 389.523M256.545 347.417L257.183 355.71M252.079 372.297L261.649 369.746M261.649 369.746L268.028 360.814M261.649 369.746L259.735 377.401M246.975 385.057L243.148 389.523M246.975 385.057L253.993 383.143M253.993 383.143L259.735 377.401M253.993 383.143V387.609H259.097L266.114 381.229L268.666 375.487M268.028 360.814L276.322 359.538V367.194L268.666 375.487M268.666 375.487L259.735 377.401M275.046 344.227L283.977 342.951L292.909 331.467M292.909 331.467H301.841L310.134 320.622M310.134 320.622L309.496 308.501M310.134 320.622L318.428 319.346L327.359 306.587M309.496 308.501L317.79 296.379M327.359 306.587V295.103M327.359 306.587L335.015 305.311L343.309 293.827L343.946 281.706M317.79 296.379L327.359 295.103M327.359 295.103L335.015 283.62M343.946 281.706L335.015 283.62M343.946 281.706L349.688 272.136M335.015 283.62L334.377 270.86M324.169 272.136L334.377 270.86M349.688 272.136L356.706 270.86M349.688 272.136L350.964 257.463M334.377 270.86L341.395 258.739M341.395 258.739L350.964 257.463M341.395 258.739L340.757 244.066M328.635 244.066H340.757M362.448 281.706L361.172 293.827L354.154 304.035L346.498 305.311L347.136 293.827L355.43 282.982M362.448 281.706L355.43 282.982M362.448 281.706L371.379 269.585M355.43 282.982L356.706 270.86M371.379 269.585V257.463M371.379 269.585H375.207L381.587 258.739M356.706 270.86L364.999 258.739M364.999 258.739L371.379 257.463M364.999 258.739L364.361 244.704M350.964 257.463L357.982 244.704M357.982 244.704H364.361M357.982 244.704L355.43 230.668M340.757 244.066L347.136 230.668M347.136 230.668H355.43M347.136 230.668L343.309 216.633M331.825 216.633H343.309M331.825 216.633L327.359 202.598M371.379 257.463L378.397 246.618M381.587 258.739V246.618M381.587 258.739L385.414 260.015M378.397 246.618L377.121 233.22M378.397 246.618H381.587M364.361 244.704L371.379 233.22M327.359 202.598L331.825 189.201M313.324 173.251H327.359M327.359 173.251L331.825 189.201M327.359 173.251L331.187 159.854M311.41 143.905H325.445M325.445 143.905L331.187 159.854M325.445 143.905L328.635 131.783M307.582 115.196H320.342M320.342 115.196L328.635 131.783M320.342 115.196L323.532 104.351M301.841 90.9535H313.324M313.324 90.9535L323.532 104.351M313.324 90.9535L316.514 80.746M294.185 66.7107L306.306 68.6246M306.306 68.6246L316.514 80.746M306.306 68.6246L307.582 60.331M285.891 47.5717L298.013 48.8476M298.013 48.8476L307.582 60.331M298.013 48.8476L298.651 42.4679M291.633 34.1743L298.651 42.4679M291.633 34.1743L292.271 28.4326L299.289 30.9845M371.379 233.22H377.121M371.379 233.22L369.465 218.547M355.43 230.668L362.448 218.547M362.448 218.547H369.465M362.448 218.547L358.62 203.874M343.309 216.633L349.688 203.874M349.688 203.874H358.62M349.688 203.874L344.584 189.201M331.825 189.201H344.584M377.121 233.22L381.587 221.737M381.587 246.618L387.328 235.772M381.587 221.737H387.328M381.587 221.737L380.949 207.702M369.465 218.547L373.931 207.064M373.931 207.064L380.949 207.702M373.931 207.064L371.379 191.752M358.62 203.874L362.448 191.752M362.448 191.752H371.379M362.448 191.752L359.258 177.717M344.584 189.201L348.412 177.717M348.412 177.717H359.258M348.412 177.717L343.309 159.854M331.187 159.854H343.309M387.328 235.772V221.737M387.328 235.772H391.156M387.328 221.737L391.156 211.529M391.156 235.772V250.445M391.156 235.772L394.346 226.203M391.156 211.529H394.346M391.156 211.529L389.242 198.132M380.949 207.702L383.501 196.856M383.501 196.856L389.242 198.132M383.501 196.856L381.587 181.545M371.379 191.752L373.931 181.545M373.931 181.545H381.587M373.931 181.545L371.379 165.596M359.258 177.717L362.448 165.596M362.448 165.596H371.379M362.448 165.596L357.344 149.009M343.309 159.854L347.136 149.009H357.344M357.344 149.009L358.62 136.887M328.635 131.783L340.757 133.059M385.414 260.015L391.156 250.445M385.414 260.015L383.501 272.136L387.328 270.86L393.07 257.463L396.26 239.6M391.156 250.445L394.551 249.17L396.26 239.6M396.26 239.6L399.45 216.633M394.346 226.203V211.529M394.346 226.203L399.45 216.633M394.346 211.529L396.898 203.236M399.45 216.633V203.236M396.898 203.236H399.45M396.898 203.236L395.105 191.752M389.242 198.132L391.156 190.476M391.156 190.476L395.105 191.752M391.156 190.476L389.242 173.889M381.587 181.545L383.501 170.699M383.501 170.699L380.311 154.75M383.501 170.699L389.242 173.889M371.379 165.596L373.931 154.75M373.931 154.75H380.311M373.931 154.75L366.913 138.801M358.62 136.887L366.913 138.801M358.62 136.887L352.24 123.49M347.136 148.371L340.757 133.059M340.757 133.059L342.033 121.576M342.033 121.576L352.24 123.49M342.033 121.576L335.015 106.903M323.532 104.351L335.015 106.903M335.015 106.903V95.4193M316.514 80.746L326.083 83.2979M326.083 83.2979L335.015 95.4193M326.083 83.2979L327.359 73.0904M307.582 60.331L317.79 62.8829M317.79 62.8829L327.359 73.0904M317.79 62.8829V54.5893M298.651 42.4679L307.582 44.3818M307.582 44.3818L317.79 54.5893M307.582 44.3818L308.22 39.2781M299.289 30.9845L308.22 39.2781M299.289 30.9845L316.514 42.4679M399.45 203.236L398.174 177.717M398.174 177.717L395.105 191.752M398.174 177.717L396.26 157.94M398.174 177.717L395.105 165.596M389.242 173.889L390.518 163.682M380.311 154.75V141.991M380.311 141.991L375.207 129.87M380.311 141.991L386.052 144.543M366.913 138.801L368.189 128.594M368.189 128.594L375.207 129.87M368.189 128.594L361.81 114.558M352.24 123.49V110.093M352.24 110.093L345.86 99.885M352.24 110.093L361.81 114.558M335.015 95.4193L345.86 99.885M345.86 99.885V88.4016M361.81 114.558V103.075M345.86 88.4016L337.567 76.9182M345.86 88.4016L355.43 92.2294M327.359 73.0904L337.567 76.9182M337.567 76.9182L336.291 68.6246M317.79 54.5893L327.359 58.4171M355.43 92.2294L361.81 103.075M355.43 92.2294L353.516 83.2979M336.291 68.6246L327.359 58.4171M336.291 68.6246L344.584 71.8144M327.359 58.4171L326.083 53.3134M344.584 71.8144L353.516 83.2979M344.584 71.8144L343.309 64.7968M326.083 53.3134L333.101 54.5893M326.083 53.3134L316.514 42.4679M308.22 39.2781L316.514 42.4679M316.514 42.4679L333.101 54.5893M375.207 129.87V121.576M386.052 144.543L386.69 137.525M386.052 144.543L390.518 163.682M375.207 121.576L367.551 106.903M375.207 121.576L381.587 126.68M361.81 103.075L367.551 106.903M367.551 106.903V99.885M353.516 83.2979L359.896 85.8497M359.896 85.8497L367.551 99.885M359.896 85.8497V78.8321M343.309 64.7968L333.101 54.5893M343.309 64.7968L347.136 66.7107M333.101 54.5893L347.136 66.7107M347.136 66.7107L359.896 78.8321M390.518 163.682L395.105 165.596M381.587 126.68L386.69 137.525M381.587 126.68L380.311 115.196M367.551 99.885L373.293 102.437M386.69 137.525L390.518 141.353M380.311 115.196L373.293 102.437M380.311 115.196L387.966 134.335L390.518 141.353M390.518 141.353L396.26 157.94M373.293 102.437L359.896 78.8321M395.105 165.596L396.26 157.94M123.21 320.622V333.381H110.45L99.6047 325.088L98.3288 311.69L112.364 309.777L123.21 320.622ZM202.956 323.174L187.644 323.812L179.989 314.242L183.179 300.207L198.49 298.293L206.783 309.139L202.956 323.174ZM201.68 395.902L195.3 391.436L188.282 392.074V398.454L194.024 401.006L202.318 400.368L201.68 395.902Z" stroke="#6FFEFE" stroke-width="1.82249"/>
<path d="M201 401C311.457 401 401 311.457 401 201C401 90.5431 311.457 1 201 1C90.5431 1 1 90.5431 1 201C1 311.457 90.5431 401 201 401Z" stroke="#6FFEFE" stroke-width="2"/>
</svg>
