<svg width="840" height="900" viewBox="0 0 840 900" fill="none" xmlns="http://www.w3.org/2000/svg">
<g opacity="0.5">
<path d="M359.571 460.972C342.914 448.879 334.103 434.451 340.619 413.251C362.742 341.717 436.795 282.683 421.702 203.859C413.898 163.388 379.943 127.57 331.565 99.9005C102.725 -30.5898 -112.713 21.3949 -177.691 58.0527C-244.286 95.6032 -208.584 170.513 -173.522 219.193C-130.355 279.184 -75.6605 339.121 -69.361 404.695C-62.7223 473.932 -29.6821 631.809 14.4358 700.726C45.5628 749.348 122.809 817.545 200.619 826.438C278.429 835.332 354.88 787.152 413.725 757.729C472.569 728.305 718.693 872.037 746.355 826.314C783.548 764.83 701.012 687.211 641.821 637.439C581.798 586.983 512.262 541.514 436.709 500.942C408.707 485.985 378.883 475.033 359.571 460.972Z" stroke="#1D0FBF" stroke-opacity="0.2" stroke-width="3"/>
<path d="M-187.615 46.73C-258.582 86.7198 -220.418 166.614 -183.144 218.486C-137.243 282.414 -78.7571 346.311 -72.1957 416.225C-65.1676 490.013 -45.1082 642.096 1.976 715.564C35.1545 767.458 117.155 833.847 200.202 843.339C274.421 851.822 347.183 809.392 404.915 783.075C464.403 755.978 687.378 879.43 718.675 836.376C761.872 776.753 698.544 700.841 651.605 648.648C604.538 596.244 544.838 548.275 476.566 505.008C451.262 488.988 423.871 476.648 405.268 461.688C389.287 448.988 380.049 434.314 383.473 413.643C388.701 382.5 400.357 353.462 410.173 324.607C418.595 300 425.498 275.416 424.996 249.3C424.776 236.637 422.184 223.507 417.264 209.523C403.719 171.532 367.974 136.783 317.89 108.134C243.455 65.73 170.428 38.8674 102.381 24.134C-25.1228 -3.56715 -137.382 18.3795 -187.615 46.73Z" stroke="#1D0FBF" stroke-opacity="0.2" stroke-width="3"/>
<path d="M-197.689 35.3904C-273.028 77.8195 -232.551 162.68 -192.916 217.761C-144.132 285.643 -82.1531 353.467 -75.0306 427.755C-67.6131 506.094 -60.5455 652.479 -10.6447 730.482C24.5964 785.55 111.49 850.245 199.475 860.302C270.252 868.392 339.336 831.616 395.794 808.483C456.076 783.73 656.04 887.017 690.536 846.483C739.884 788.739 695.455 714.595 660.917 659.999C626.497 605.71 577.092 555.195 516.101 509.233C493.635 492.264 468.676 478.537 450.643 462.565C435.349 449.159 425.546 434.127 425.867 414.081C426.367 383.18 430.271 354.335 432.002 325.927C433.535 301.904 433.655 278.308 427.728 253.237C424.843 241.347 419.608 228.797 412.355 215.33C393.507 179.966 355.385 146.121 303.892 116.527C231.625 75.0565 160.492 44.8836 92.3882 25.3433C-25.8959 -8.74945 -140.491 3.1336 -197.689 35.3904Z" stroke="#1D0FBF" stroke-opacity="0.2" stroke-width="3"/>
<path d="M-207.763 24.0507C-287.484 69.0158 -244.684 158.746 -202.847 217.116C-151.18 288.952 -85.5704 360.815 -78.175 439.348C-70.2186 522.255 -76.2814 662.829 -23.5638 745.366C13.7398 803.609 105.377 866.593 198.599 877.248C265.785 884.928 331.479 853.936 386.674 833.892C447.738 811.58 624.714 894.506 662.547 856.607C718.197 800.76 692.505 728.463 670.392 671.271C648.766 615.113 609.508 562.035 555.809 513.282C536.03 495.347 513.653 480.249 496.18 463.361C481.573 449.25 471.194 433.957 468.561 414.552C464.334 383.896 460.485 355.241 454.141 327.184C448.775 303.842 442.273 281.155 430.772 257.112C425.382 245.916 417.481 234.138 407.917 220.995C383.916 188.274 343.417 155.333 290.367 124.778C220.095 84.417 150.984 51.1444 82.7177 26.3934C-26.7676 -13.0615 -143.6 -12.1124 -207.763 24.0507Z" stroke="#1D0FBF" stroke-opacity="0.2" stroke-width="3"/>
<path d="M-217.834 12.7109C-301.927 60.1152 -256.815 154.813 -212.616 216.391C-158.227 292.261 -88.9637 367.971 -81.0072 450.878C-72.6614 538.336 -91.716 673.212 -36.0211 760.204C3.33401 821.719 99.875 882.912 198.174 894.246C261.768 901.514 324.211 876.421 377.867 859.238C439.851 839.48 593.828 902.144 634.882 866.572C697.133 812.655 689.718 742.251 680.178 682.479C671.027 624.613 642.075 568.892 595.658 517.444C578.716 498.56 558.771 482.075 541.858 464.271C527.926 449.552 516.982 433.9 511.257 415.024C502.015 384.479 490.839 356.261 476.272 328.537C464.317 305.814 450.893 284.001 433.645 261.163C425.75 250.66 415.195 239.559 403.149 226.916C374.305 196.776 330.969 164.784 276.511 133.285C208.246 93.9367 141.101 58.0478 72.7056 27.796C-27.8535 -16.8105 -146.546 -27.4381 -217.834 12.7109Z" stroke="#1D0FBF" stroke-opacity="0.2" stroke-width="3"/>
<path d="M-227.908 1.37089C-316.373 51.2145 -268.948 150.879 -222.387 215.666C-165.115 295.491 -92.2099 375.143 -83.9806 462.294C-75.2454 554.303 -107.43 683.368 -48.7802 775.008C-7.36253 839.697 93.9217 899.18 197.458 911.112C257.461 917.97 316.652 898.775 368.758 884.549C431.812 867.363 562.801 909.668 606.754 876.583C675.744 824.709 686.169 756.051 689.502 693.733C692.675 634.141 674.18 575.795 635.066 521.459C620.8 501.705 603.449 483.753 587.255 464.954C574 449.626 562.341 433.598 553.812 415.381C539.543 385.046 521.224 356.991 498.261 329.777C479.706 307.769 459.66 286.864 436.538 265.02C426.288 255.228 413.24 244.723 398.561 232.563C365.185 204.943 318.84 174.076 262.686 141.501C196.427 103.166 130.756 64.9965 62.5857 28.7945C-29.457 -20.0308 -149.655 -42.6844 -227.908 1.37089Z" stroke="#1D0FBF" stroke-opacity="0.2" stroke-width="3"/>
<path d="M-237.842 -9.85518C-330.678 42.4277 -280.93 146.962 -232.157 214.941C-172.002 298.72 -95.6042 382.298 -86.8138 473.824C-77.5396 570.401 -122.855 693.654 -61.3881 789.829C-17.9079 857.693 88.2582 915.578 196.743 927.978C253.305 934.443 309.084 921.226 359.65 909.861C423.764 895.343 531.914 917.305 578.777 886.61C654.645 836.894 682.782 769.771 698.988 704.908C714.347 643.476 706.459 582.521 674.775 525.508C663.197 504.787 648.278 485.448 632.793 465.75C620.225 449.717 607.839 433.41 596.506 415.853C577.062 385.71 551.888 357.949 520.402 331.034C495.257 309.645 468.451 289.535 439.583 268.895C426.828 259.796 411.286 249.888 393.964 238.307C356.227 213.029 306.563 183.351 249.012 149.734C184.76 112.413 120.08 72.2011 52.7554 29.9239C-31.6908 -23.0293 -152.763 -57.9305 -237.842 -9.85518Z" stroke="#1D0FBF" stroke-opacity="0.2" stroke-width="3"/>
<path d="M-247.915 -21.1954C-345.134 33.6236 -292.923 143.141 -241.789 214.329C-178.751 302.063 -98.7105 389.584 -89.6582 485.45C-79.9947 586.578 -138.302 704.134 -73.8687 804.861C-28.4866 875.979 82.5834 932.073 196.305 945.072C249.276 951.126 301.921 944.114 350.969 935.417C416.27 923.778 501.442 925.284 551.227 896.882C633.951 849.517 679.672 783.718 708.74 716.407C736.135 653.117 738.842 589.651 714.6 529.864C705.71 508.177 693.223 487.45 678.448 466.854C666.405 450.195 653.305 433.512 639.179 416.517C614.536 386.76 582.402 358.889 542.509 332.581C510.936 311.73 477.358 292.512 442.582 273.156C427.473 264.767 409.448 255.36 389.333 244.342C347.247 221.309 294.253 192.916 235.294 158.354C173.07 121.852 108.749 79.8206 42.9029 31.2465C-34.3957 -25.886 -155.87 -73.177 -247.915 -21.1954Z" stroke="#1D0FBF" stroke-opacity="0.2" stroke-width="3"/>
<path d="M445.637 276.934C356.927 237.405 192.586 169.931 33.0605 32.473C-37.8607 -28.7309 -158.83 -88.4058 -257.988 -32.535C-359.579 24.7232 -305.056 139.208 -251.709 213.588C-185.938 305.258 -102.256 396.723 -92.6421 496.963C-82.4396 602.659 -153.877 714.404 -86.6274 819.665C-39.1827 893.958 76.7802 948.358 195.59 961.938C314.399 975.518 433.242 951.679 523.11 906.796C612.99 861.817 675.858 797.193 718.086 727.468C803.696 585.896 766.393 441.442 564.521 333.628C526.52 313.316 486.17 294.988 445.637 276.934Z" stroke="#1D0FBF" stroke-opacity="0.2" stroke-width="3"/>
</g>
</svg>
