<svg xmlns:xlink="http://www.w3.org/1999/xlink" xmlns="http://www.w3.org/2000/svg" width="147" height="47" viewBox="0 0 147 47" fill="none">
<g clip-path="url(#clip0_0_976)">
<path d="M24.4468 45.1604C36.9439 45.1604 47.0747 35.2573 47.0747 23.0411C47.0747 10.825 36.9439 0.921875 24.4468 0.921875C11.9497 0.921875 1.81885 10.825 1.81885 23.0411C1.81885 35.2573 11.9497 45.1604 24.4468 45.1604Z" fill="#171C2A"/>
<path d="M24.4468 46.0818C19.785 46.0818 15.2278 44.7305 11.3516 42.1987C7.47541 39.667 4.45428 36.0685 2.67027 31.8583C0.88625 27.6481 0.419471 23.0154 1.32895 18.5459C2.23844 14.0764 4.48334 9.97087 7.77977 6.74854C11.0762 3.52621 15.2761 1.33177 19.8484 0.442735C24.4207 -0.446304 29.16 0.00998323 33.467 1.75389C37.774 3.49781 41.4552 6.45102 44.0452 10.2401C46.6352 14.0291 48.0176 18.4839 48.0176 23.0409C48.0101 29.1495 45.5244 35.0058 41.1056 39.3252C36.6868 43.6446 30.6959 46.0745 24.4468 46.0818ZM24.4468 1.84328C20.1579 1.84328 15.9653 3.0865 12.3992 5.41573C8.83312 7.74495 6.05368 11.0556 4.41239 14.9289C2.7711 18.8023 2.34166 23.0644 3.17838 27.1764C4.01511 31.2883 6.08041 35.0654 9.11313 38.0299C12.1458 40.9944 16.0098 43.0133 20.2163 43.8312C24.4228 44.6492 28.7829 44.2294 32.7453 42.625C36.7078 41.0206 40.0945 38.3036 42.4773 34.8177C44.8601 31.3318 46.1319 27.2334 46.1319 23.0409C46.1244 17.4212 43.8374 12.0338 39.7722 8.06001C35.7071 4.08626 30.1958 1.8506 24.4468 1.84328Z" fill="#00D991"/>
<path d="M18.8714 24.7693L18.7348 24.9029C18.6649 24.9714 18.665 25.0823 18.735 25.1506L20.7865 27.1532C20.8565 27.2215 20.9699 27.2214 21.0398 27.153L21.1764 27.0193C21.2463 26.9509 21.2462 26.84 21.1762 26.7716L19.1247 24.7691C19.0547 24.7007 18.9413 24.7008 18.8714 24.7693Z" fill="white"/>
<path d="M18.9162 23.7406L18.7796 23.8742C18.7096 23.9426 18.7096 24.0535 18.7796 24.1219L20.4729 25.7772C20.5429 25.8456 20.6563 25.8456 20.7263 25.7772L20.8629 25.6436C20.9329 25.5752 20.9329 25.4643 20.8629 25.3959L19.1696 23.7406C19.0996 23.6722 18.9862 23.6722 18.9162 23.7406Z" fill="white"/>
<path d="M30.458 24.7746L30.3215 24.9083C30.2516 24.9768 30.2516 25.0876 30.3216 25.156L32.3731 27.1585C32.4431 27.2269 32.5565 27.2268 32.6265 27.1584L32.763 27.0247C32.8329 26.9562 32.8329 26.8454 32.7629 26.777L30.7114 24.7745C30.6414 24.7061 30.5279 24.7062 30.458 24.7746Z" fill="white"/>
<path d="M30.4886 23.7413L30.3518 23.8748C30.2818 23.9431 30.2817 24.054 30.3516 24.1225L32.0435 25.7792C32.1134 25.8477 32.2268 25.8478 32.2968 25.7794L32.4336 25.646C32.5036 25.5776 32.5037 25.4668 32.4338 25.3983L30.7419 23.7416C30.672 23.6731 30.5586 23.673 30.4886 23.7413Z" fill="white"/>
<path fill-rule="evenodd" clip-rule="evenodd" d="M35.2894 26.0133H34.818C34.6842 24.9223 34.1493 23.9159 33.3129 23.1818C32.4765 22.4477 31.3956 22.0357 30.2716 22.0228C29.1475 22.0098 28.057 22.3967 27.2031 23.1113C26.3492 23.826 25.7901 24.8197 25.6301 25.9073C25.3802 25.9626 24.4044 26.0133 24.4044 26.0133C24.4044 26.0133 23.4616 25.9672 23.2306 25.9165C23.0716 24.8288 22.5135 23.8346 21.6604 23.1192C20.8073 22.4038 19.7172 22.0159 18.5932 22.0277C17.4693 22.0396 16.388 22.4504 15.5508 23.1836C14.7137 23.9168 14.1777 24.9225 14.0427 26.0133H13.5147C13.4197 26.0133 13.3286 26.0502 13.2614 26.1159C13.1942 26.1815 13.1564 26.2706 13.1564 26.3635V26.7276C13.1577 26.8189 13.1953 26.9061 13.2613 26.9706C13.3274 27.0352 13.4166 27.072 13.51 27.0732H14.0191C14.1516 28.1644 14.6855 29.1714 15.5211 29.9065C16.3568 30.6415 17.4373 31.0546 18.5614 31.0687C19.6855 31.0828 20.7765 30.6969 21.6312 29.9831C22.4858 29.2692 23.0459 28.276 23.207 27.1884C23.4663 27.1377 24.3808 27.087 24.3808 27.087C24.3808 27.087 25.3519 27.1469 25.6065 27.1976C25.745 28.3047 26.2965 29.3229 27.1553 30.0573C28.0141 30.7916 29.1199 31.1904 30.2608 31.1773C31.4017 31.1641 32.4976 30.74 33.3385 29.9861C34.1794 29.2322 34.7062 28.2016 34.818 27.0916H35.2894C35.3828 27.0916 35.4725 27.056 35.5394 26.9923C35.6064 26.9286 35.6452 26.8419 35.6477 26.7506V26.3681C35.6477 26.2752 35.6099 26.1862 35.5427 26.1205C35.4755 26.0548 35.3844 26.0179 35.2894 26.0179V26.0133ZM18.6201 30.004C17.9218 30.004 17.2391 29.8015 16.6585 29.4223C16.0778 29.043 15.6253 28.504 15.358 27.8733C15.0908 27.2426 15.0208 26.5486 15.1571 25.8791C15.2933 25.2096 15.6296 24.5946 16.1234 24.1118C16.6172 23.6291 17.2464 23.3004 17.9313 23.1672C18.6162 23.0341 19.3262 23.1024 19.9714 23.3637C20.6165 23.6249 21.168 24.0673 21.556 24.6349C21.944 25.2025 22.151 25.8698 22.151 26.5524C22.151 27.4679 21.779 28.3458 21.1169 28.993C20.4547 29.6403 19.5566 30.004 18.6201 30.004ZM30.1934 30.004C29.495 30.004 28.8124 29.8015 28.2317 29.4223C27.6511 29.043 27.1985 28.504 26.9313 27.8733C26.664 27.2426 26.5941 26.5486 26.7303 25.8791C26.8666 25.2096 27.2029 24.5946 27.6967 24.1118C28.1905 23.6291 28.8196 23.3004 29.5045 23.1672C30.1895 23.0341 30.8994 23.1024 31.5446 23.3637C32.1898 23.6249 32.7412 24.0673 33.1292 24.6349C33.5172 25.2025 33.7243 25.8698 33.7243 26.5524C33.7243 27.4679 33.3523 28.3458 32.6901 28.993C32.0279 29.6403 31.1298 30.004 30.1934 30.004Z" fill="white"/>
<path d="M39.3341 24.7093V16.6495H36.4349C36.6044 15.7637 36.7131 14.8677 36.7602 13.9676L35.0536 15.2072C35.9965 14.1427 35.0536 9.17969 35.0536 9.17969C35.0536 9.17969 33.8091 11.5667 26.0496 10.9584C18.2901 10.3502 17.2011 13.3639 17.2011 13.3639C16.2583 12.4423 17.2011 10.9354 17.2011 10.9354C16.92 11.0624 16.6672 11.2423 16.4572 11.4648C16.2472 11.6873 16.0841 11.9481 15.9773 12.2323C15.8705 12.5165 15.822 12.8184 15.8346 13.1209C15.8473 13.4234 15.9207 13.7205 16.0509 13.9952L16.1169 14.1197H13.6042L15.339 15.2072C14.7924 15.5618 14.3722 16.0739 14.1369 16.6726H9.46992V24.7093L7.77283 26.3682L9.46992 28.0271L9.94134 36.0869H14.3491L13.8777 27.5571C13.8823 27.5289 13.8811 27.5 13.874 27.4723C13.867 27.4446 13.8543 27.4185 13.8367 27.3957C13.819 27.3729 13.7969 27.3538 13.7715 27.3395C13.7462 27.3253 13.7181 27.3162 13.6891 27.3129C13.6317 27.3049 13.5733 27.3193 13.5266 27.3529C13.4799 27.3865 13.4485 27.4366 13.4392 27.4926C13.4345 27.5139 13.4345 27.5359 13.4392 27.5571V34.1007H11.464V27.4926L10.3043 26.3682L11.4593 25.2438V18.6357H13.6561C13.6042 19.1348 13.5948 19.6373 13.6278 20.1379H15.1788C15.2651 19.2175 15.7149 18.3663 16.4327 17.7647C19.0727 14.5759 30.2499 16.4376 30.2499 16.4376L31.4897 14.6496L31.0183 16.4376C33.6488 17.0505 33.8751 20.0826 33.8751 20.0826H35.0536C35.4079 19.6478 35.6866 19.159 35.8786 18.6357H37.34V25.2438L38.495 26.3682L37.34 27.4926V34.1007H34.9264L35.3978 36.0869H39.8055L39.3341 28.0271L41.0312 26.3682L39.3341 24.7093Z" fill="white"/>
<path d="M61.8395 17.4098H65.6344V19.1977H59.506V7.93994H61.8159L61.8395 17.4098Z" fill="white"/>
<path d="M75.5341 15.4098H68.8494C68.8732 15.9833 69.1212 16.526 69.5424 16.9259C69.952 17.2925 70.4912 17.4891 71.0462 17.4743C71.4274 17.4961 71.8064 17.4042 72.133 17.2108C72.4596 17.0174 72.7185 16.7317 72.8753 16.3914H75.3597C75.1028 17.2404 74.5699 17.9846 73.8417 18.5111C73.0542 19.0796 72.0957 19.3763 71.117 19.3544C70.2935 19.3653 69.4812 19.1668 68.7599 18.7784C68.0671 18.4039 67.4993 17.8424 67.1241 17.1609C66.7119 16.4203 66.4994 15.5893 66.5065 14.7463C66.4883 13.8991 66.6877 13.061 67.0864 12.3085C67.4519 11.6276 68.0142 11.0667 68.7033 10.6957C69.4444 10.3073 70.2764 10.1151 71.117 10.1381C71.9378 10.1195 72.7497 10.3084 73.474 10.6865C74.1517 11.0403 74.7089 11.5801 75.0768 12.2394C75.4631 12.948 75.6593 13.7407 75.6473 14.5435C75.633 14.8347 75.5951 15.1244 75.5341 15.4098ZM73.2053 13.8937C73.2081 13.6315 73.1522 13.3719 73.0414 13.1331C72.9306 12.8943 72.7678 12.6821 72.5642 12.5113C72.1359 12.1561 71.5889 11.9675 71.0274 11.9813C70.4985 11.9673 69.9835 12.1482 69.5849 12.4882C69.1772 12.8584 68.9223 13.3617 68.8683 13.903L73.2053 13.8937Z" fill="white"/>
<path d="M77.2453 12.2945C77.5806 11.6303 78.1 11.0714 78.7444 10.6817C79.3835 10.3033 80.1187 10.1084 80.8658 10.1195C81.4876 10.1067 82.103 10.2444 82.6572 10.5204C83.1391 10.765 83.5582 11.1132 83.8829 11.5388V10.2623H86.2022V19.1976H83.8734V17.8935C83.5556 18.3299 83.1352 18.6855 82.6478 18.9303C82.0892 19.2141 81.4669 19.3566 80.8375 19.345C80.0943 19.3521 79.3646 19.1506 78.735 18.7644C78.094 18.3614 77.5787 17.7939 77.2453 17.1239C76.8642 16.3711 76.6734 15.5398 76.6891 14.7C76.6744 13.8662 76.8652 13.0411 77.2453 12.2945ZM83.5529 13.3175C83.3523 12.9333 83.043 12.6134 82.6619 12.3959C82.2965 12.1896 81.8818 12.0814 81.4598 12.0826C81.0354 12.0792 80.6181 12.1895 80.2533 12.4015C79.8885 12.6136 79.59 12.9192 79.3903 13.2853C79.157 13.7098 79.0401 14.186 79.0509 14.6677C79.0401 15.1583 79.1569 15.6435 79.3903 16.0778C79.5953 16.4591 79.9035 16.7779 80.2812 16.9995C80.6358 17.2119 81.0439 17.3236 81.4598 17.3221C81.8818 17.3232 82.2965 17.2151 82.6619 17.0087C83.043 16.7912 83.3523 16.4713 83.5529 16.0871C83.7842 15.6523 83.8978 15.1668 83.8829 14.677C83.8863 14.2039 83.7714 13.7373 83.5482 13.3175H83.5529Z" fill="white"/>
<path d="M91.9394 10.5389C92.4393 10.2629 93.0058 10.1229 93.5799 10.1334V12.5066H92.9718C92.3803 12.4649 91.7946 12.6426 91.3312 13.0043C90.9588 13.336 90.7797 13.9259 90.7797 14.7461V19.1977H88.465V10.2624H90.7797V11.6448C91.0623 11.1847 91.4618 10.8037 91.9394 10.5389Z" fill="white"/>
<path d="M102.838 11.1427C103.188 11.5235 103.457 11.9685 103.63 12.4519C103.802 12.9353 103.874 13.4473 103.843 13.9583V19.1978H101.533V14.2854C101.575 13.6922 101.38 13.106 100.991 12.6495C100.799 12.456 100.568 12.3048 100.312 12.2062C100.055 12.1076 99.7805 12.0639 99.5056 12.0781C99.2272 12.0593 98.948 12.0984 98.6863 12.193C98.4247 12.2875 98.1865 12.4353 97.9876 12.6265C97.7894 12.8544 97.6392 13.1181 97.5453 13.4028C97.4515 13.6874 97.416 13.9874 97.4408 14.2854V19.1978H95.1308V10.2625H97.4408V11.3777C97.7547 10.983 98.1603 10.667 98.624 10.456C99.1168 10.2316 99.6549 10.1182 100.199 10.1243C100.687 10.1054 101.174 10.1862 101.628 10.3616C102.083 10.5369 102.495 10.8029 102.838 11.1427Z" fill="white"/>
<path d="M72.1965 27.7733L69.5236 36.7086H67.0345L65.3657 30.4691L63.7016 36.7086H61.2172L58.5302 27.7733H60.8872L62.4618 34.5612L64.2154 27.7549H66.6573L68.3686 34.5612L69.9903 27.7733H72.1965Z" fill="white"/>
<path d="M73.6107 26.331C73.4822 26.2078 73.38 26.0608 73.3103 25.8986C73.2406 25.7364 73.2047 25.5622 73.2047 25.3863C73.2047 25.2103 73.2406 25.0362 73.3103 24.8739C73.38 24.7117 73.4822 24.5648 73.6107 24.4416C73.8897 24.1984 74.2505 24.064 74.6243 24.064C74.9981 24.064 75.3589 24.1984 75.6378 24.4416C75.7664 24.5648 75.8685 24.7117 75.9383 24.8739C76.008 25.0362 76.0439 25.2103 76.0439 25.3863C76.0439 25.5622 76.008 25.7364 75.9383 25.8986C75.8685 26.0608 75.7664 26.2078 75.6378 26.331C75.3589 26.5742 74.9981 26.7086 74.6243 26.7086C74.2505 26.7086 73.8897 26.5742 73.6107 26.331ZM75.7651 27.7733V36.7086H73.474V27.7733H75.7651Z" fill="white"/>
<path d="M80.7291 29.6262V33.9487C80.718 34.0668 80.7319 34.1859 80.77 34.2985C80.8082 34.4111 80.8697 34.5148 80.9507 34.603C81.1671 34.7573 81.4335 34.8294 81.7002 34.8058H82.775V36.709H81.3231C79.3777 36.709 78.4035 35.7874 78.4003 33.9441V29.6262H77.3113V27.7829H78.4003V25.5664H80.7291V27.7737H82.775V29.617L80.7291 29.6262Z" fill="white"/>
<path d="M91.435 28.1098C91.9819 28.411 92.4224 28.8673 92.6983 29.4185C93.0224 30.0631 93.1841 30.7741 93.1698 31.4922V36.7086H90.8598V31.7963C90.9019 31.2031 90.7076 30.6169 90.3177 30.1604C90.1264 29.9668 89.8949 29.8156 89.6387 29.717C89.3825 29.6185 89.1077 29.5748 88.8327 29.589C88.5542 29.5745 88.2758 29.6179 88.0157 29.7164C87.7557 29.8149 87.52 29.9662 87.3242 30.1604C86.9215 30.6112 86.7165 31.1989 86.7538 31.7963V36.7086H84.4391V24.7734H86.7538V28.8885C87.0602 28.4866 87.4679 28.1691 87.9371 27.9669C88.456 27.7409 89.0189 27.6277 89.587 27.6351C90.2348 27.6331 90.8718 27.7968 91.435 28.1098Z" fill="white"/>
<path d="M101.08 36.4047C100.471 36.1623 99.9429 35.7605 99.5527 35.2435C99.1734 34.7197 98.9723 34.0926 98.9776 33.4509H101.453C101.455 33.6598 101.501 33.866 101.588 34.0569C101.675 34.2478 101.8 34.4195 101.957 34.5615C102.303 34.8481 102.749 34.9933 103.201 34.967C103.657 34.9952 104.108 34.861 104.47 34.5891C104.621 34.4709 104.743 34.3198 104.824 34.1479C104.906 33.976 104.946 33.7879 104.941 33.5984C104.953 33.294 104.841 32.9974 104.63 32.7735C104.409 32.5521 104.142 32.3794 103.847 32.2666C103.423 32.1065 102.99 31.9681 102.551 31.8518C101.927 31.6844 101.318 31.4718 100.727 31.2159C100.252 31.0015 99.8387 30.6753 99.5244 30.2666C99.1619 29.7744 98.9808 29.1766 99.0106 28.5708C98.9956 27.9532 99.1732 27.3456 99.5197 26.8289C99.8758 26.3211 100.375 25.9256 100.958 25.6907C101.626 25.4168 102.345 25.2819 103.069 25.2944C104.105 25.2471 105.126 25.5462 105.964 26.1423C106.334 26.4238 106.636 26.7815 106.849 27.1901C107.062 27.5987 107.18 28.0481 107.194 28.5063H104.653C104.645 28.3197 104.596 28.137 104.509 27.9708C104.422 27.8045 104.299 27.6587 104.149 27.5432C103.793 27.2767 103.352 27.1427 102.904 27.1653C102.514 27.1461 102.13 27.2674 101.825 27.5063C101.686 27.6293 101.577 27.7815 101.507 27.9515C101.437 28.1216 101.407 28.3049 101.42 28.4879C101.415 28.627 101.44 28.7655 101.492 28.8948C101.545 29.024 101.625 29.1412 101.726 29.239C101.946 29.4395 102.204 29.5961 102.485 29.6998C102.903 29.864 103.329 30.007 103.762 30.1284C104.388 30.298 104.999 30.5137 105.592 30.7735C106.075 30.9916 106.494 31.3242 106.813 31.7412C107.176 32.2314 107.357 32.828 107.326 33.4325C107.332 34.0236 107.169 34.6046 106.855 35.1098C106.513 35.6447 106.023 36.0731 105.441 36.3448C104.756 36.6654 104.003 36.8233 103.244 36.8056C102.502 36.8158 101.766 36.6794 101.08 36.4047Z" fill="white"/>
<path d="M117.952 27.7734V36.7087H115.623V35.5797C115.32 35.9758 114.922 36.2924 114.464 36.5013C113.975 36.7244 113.442 36.8377 112.903 36.8331C112.245 36.8378 111.596 36.6793 111.018 36.3723C110.464 36.0728 110.014 35.6188 109.726 35.0682C109.397 34.432 109.235 33.7257 109.254 33.0129V27.7734H111.564V32.718C111.522 33.3113 111.717 33.8974 112.106 34.3539C112.298 34.5475 112.529 34.6987 112.785 34.7973C113.042 34.8959 113.317 34.9395 113.591 34.9253C113.869 34.9407 114.147 34.8976 114.407 34.7991C114.666 34.7005 114.901 34.5487 115.095 34.3539C115.48 33.8954 115.669 33.3094 115.623 32.718V27.7734H117.952Z" fill="white"/>
<path d="M134.287 28.6537C134.643 29.0312 134.918 29.4752 135.094 29.959C135.271 30.4428 135.346 30.9565 135.314 31.4693V36.7088H133.004V31.7965C133.047 31.213 132.852 30.6367 132.462 30.1928C132.272 30.0002 132.042 29.8489 131.788 29.7489C131.533 29.6489 131.261 29.6023 130.987 29.6122C130.712 29.5984 130.437 29.6409 130.179 29.7369C129.922 29.8329 129.688 29.9803 129.492 30.1698C129.294 30.3913 129.143 30.6493 129.048 30.9287C128.954 31.208 128.917 31.5031 128.941 31.7965V36.7088H126.631V31.7965C126.671 31.2124 126.475 30.6363 126.084 30.1928C125.89 30.0032 125.658 29.8555 125.402 29.7594C125.146 29.6633 124.873 29.621 124.599 29.6352C124.322 29.6206 124.044 29.6627 123.785 29.7587C123.525 29.8547 123.288 30.0025 123.09 30.1928C122.895 30.4115 122.746 30.6658 122.651 30.9409C122.557 31.2161 122.518 31.5068 122.539 31.7965V36.7088H120.229V27.7735H122.539V28.8564C122.842 28.4744 123.235 28.1694 123.684 27.9671C124.167 27.7478 124.694 27.6376 125.226 27.6445C125.893 27.6385 126.552 27.797 127.14 28.1053C127.694 28.3924 128.148 28.8333 128.446 29.3726C128.746 28.8394 129.196 28.4013 129.742 28.1099C130.464 27.728 131.289 27.5752 132.103 27.6727C132.918 27.7701 133.681 28.113 134.287 28.6537Z" fill="white"/>
<path d="M137.676 26.331C137.548 26.2078 137.445 26.0609 137.376 25.8986C137.306 25.7364 137.27 25.5622 137.27 25.3863C137.27 25.2103 137.306 25.0362 137.376 24.8739C137.445 24.7117 137.548 24.5648 137.676 24.4416C137.956 24.1981 138.317 24.0635 138.692 24.0635C139.067 24.0635 139.428 24.1981 139.708 24.4416C139.964 24.6922 140.108 25.032 140.108 25.3863C140.108 25.7406 139.964 26.0804 139.708 26.331C139.428 26.5745 139.067 26.7091 138.692 26.7091C138.317 26.7091 137.956 26.5745 137.676 26.331ZM139.83 27.7733V36.7086H137.521V27.7733H139.83Z" fill="white"/>
<path d="M144.794 29.6262V33.9487C144.783 34.0672 144.797 34.1868 144.836 34.2996C144.875 34.4123 144.938 34.5158 145.021 34.603C145.237 34.7585 145.503 34.8307 145.77 34.8058H146.84V36.709H145.388C143.443 36.709 142.47 35.7874 142.47 33.9441V29.6262H141.381V27.7829H142.47V25.5664H144.794V27.7737H146.84V29.617L144.794 29.6262Z" fill="white"/>
</g>
<defs>
<clipPath id="clip0_0_976">
<rect width="145.964" height="46.0818" fill="white" transform="translate(0.876038)"/>
</clipPath>
</defs>
</svg>