<svg xmlns:xlink="http://www.w3.org/1999/xlink" xmlns="http://www.w3.org/2000/svg" width="62" height="62" viewBox="0 0 62 62" fill="none">
<path d="M30.8661 60.471C47.2311 60.471 60.4975 47.2104 60.4975 30.8526C60.4975 14.4948 47.2311 1.23413 30.8661 1.23413C14.5011 1.23413 1.23468 14.4948 1.23468 30.8526C1.23468 47.2104 14.5011 60.471 30.8661 60.471Z" fill="#171C2A"/>
<path d="M30.8661 61.7051C24.7613 61.7051 18.7937 59.8956 13.7178 56.5055C8.64191 53.1154 4.68573 48.2969 2.34955 42.6593C0.0133737 37.0217 -0.597877 30.8183 0.593096 24.8335C1.78407 18.8487 4.72378 13.3513 9.04047 9.03651C13.3572 4.72171 18.857 1.78329 24.8444 0.592837C30.8318 -0.597615 37.038 0.0133679 42.678 2.34852C48.318 4.68368 53.1386 8.63813 56.5303 13.7118C59.9219 18.7855 61.7321 24.7505 61.7321 30.8526C61.7223 39.0321 58.4672 46.8739 52.6808 52.6578C46.8945 58.4416 39.0492 61.6953 30.8661 61.7051ZM30.8661 2.46822C25.2497 2.46822 19.7595 4.13293 15.0897 7.25184C10.4198 10.3708 6.78016 14.8038 4.63087 19.9903C2.48159 25.1769 1.91924 30.884 3.01493 36.3901C4.11063 41.8961 6.81516 46.9537 10.7865 50.9233C14.7579 54.8929 19.8177 57.5963 25.3261 58.6915C30.8346 59.7867 36.5442 59.2246 41.733 57.0763C46.9219 54.9279 51.3568 51.2898 54.4771 46.622C57.5974 41.9543 59.2628 36.4664 59.2628 30.8526C59.253 23.3276 56.2581 16.1136 50.9348 10.7926C45.6115 5.47164 38.3944 2.47801 30.8661 2.46822Z" fill="#00D991"/>
<path d="M23.5651 33.1665L23.3863 33.3456C23.2947 33.4372 23.2948 33.5857 23.3865 33.6772L26.0729 36.3587C26.1646 36.4502 26.3131 36.4501 26.4047 36.3584L26.5835 36.1794C26.6751 36.0878 26.675 35.9393 26.5833 35.8478L23.8969 33.1663C23.8052 33.0748 23.6567 33.0749 23.5651 33.1665Z" fill="white"/>
<path d="M23.6239 31.7889L23.4449 31.9677C23.3533 32.0593 23.3533 32.2078 23.4449 32.2993L25.6624 34.5159C25.754 34.6074 25.9025 34.6074 25.9942 34.5159L26.1731 34.337C26.2647 34.2454 26.2647 34.0969 26.1731 34.0054L23.9556 31.7888C23.864 31.6973 23.7155 31.6973 23.6239 31.7889Z" fill="white"/>
<path d="M38.738 33.1734L38.5591 33.3524C38.4676 33.444 38.4677 33.5925 38.5594 33.684L41.2458 36.3655C41.3375 36.457 41.486 36.4569 41.5775 36.3653L41.7564 36.1862C41.8479 36.0946 41.8478 35.9461 41.7561 35.8546L39.0697 33.1731C38.978 33.0816 38.8295 33.0817 38.738 33.1734Z" fill="white"/>
<path d="M38.7779 31.7901L38.5988 31.9689C38.5071 32.0604 38.507 32.2088 38.5985 32.3005L40.8141 34.5189C40.9056 34.6106 41.0541 34.6107 41.1458 34.5192L41.3249 34.3405C41.4166 34.249 41.4168 34.1005 41.3252 34.0089L39.1097 31.7904C39.0182 31.6988 38.8696 31.6986 38.7779 31.7901Z" fill="white"/>
<path fill-rule="evenodd" clip-rule="evenodd" d="M45.0646 34.8321H44.4473C44.2721 33.3712 43.5716 32.0237 42.4764 31.0407C41.3811 30.0576 39.9656 29.5061 38.4937 29.4887C37.0218 29.4713 35.5937 29.9894 34.4755 30.9463C33.3574 31.9032 32.6253 33.2338 32.4157 34.6902C32.0885 34.7643 30.8106 34.8321 30.8106 34.8321C30.8106 34.8321 29.576 34.7704 29.2735 34.7026C29.0653 33.2461 28.3345 31.9149 27.2174 30.9569C26.1002 29.9989 24.6727 29.4795 23.2009 29.4953C21.729 29.5112 20.3131 30.0612 19.2169 31.0431C18.1206 32.0249 17.4187 33.3715 17.2419 34.8321H16.5505C16.4261 34.8321 16.3068 34.8815 16.2188 34.9695C16.1308 35.0574 16.0814 35.1767 16.0814 35.3011V35.7886C16.083 35.9108 16.1323 36.0276 16.2187 36.114C16.3052 36.2005 16.4221 36.2498 16.5444 36.2514H17.2111C17.3846 37.7126 18.0836 39.0609 19.1779 40.0452C20.2722 41.0295 21.6872 41.5826 23.1592 41.6015C24.6312 41.6203 26.0599 41.1037 27.1791 40.1478C28.2983 39.1919 29.0317 37.8619 29.2426 36.4056C29.5822 36.3377 30.7798 36.2699 30.7798 36.2699C30.7798 36.2699 32.0515 36.3501 32.3848 36.418C32.5662 37.9004 33.2883 39.2639 34.413 40.2471C35.5376 41.2304 36.9856 41.7644 38.4796 41.7469C39.9737 41.7293 41.4087 41.1614 42.5098 40.1519C43.611 39.1424 44.3008 37.7623 44.4473 36.276H45.0646C45.1869 36.2761 45.3044 36.2284 45.392 36.1431C45.4797 36.0578 45.5305 35.9416 45.5337 35.8194V35.3073C45.5337 35.1829 45.4843 35.0636 45.3963 34.9757C45.3083 34.8877 45.189 34.8383 45.0646 34.8383V34.8321ZM23.2361 40.1758C22.3216 40.1758 21.4277 39.9047 20.6673 39.3969C19.9069 38.8891 19.3143 38.1672 18.9643 37.3227C18.6144 36.4782 18.5228 35.549 18.7012 34.6524C18.8796 33.7559 19.32 32.9324 19.9666 32.286C20.6133 31.6397 21.4371 31.1995 22.3341 31.0212C23.231 30.8428 24.1607 30.9344 25.0055 31.2842C25.8504 31.634 26.5725 32.2264 27.0806 32.9864C27.5887 33.7464 27.8598 34.64 27.8598 35.5541C27.8598 36.7798 27.3727 37.9554 26.5056 38.8221C25.6385 39.6889 24.4624 40.1758 23.2361 40.1758ZM38.3913 40.1758C37.4769 40.1758 36.5829 39.9047 35.8225 39.3969C35.0622 38.8891 34.4695 38.1672 34.1196 37.3227C33.7696 36.4782 33.678 35.549 33.8565 34.6524C34.0349 33.7559 34.4752 32.9324 35.1219 32.286C35.7685 31.6397 36.5924 31.1995 37.4893 31.0212C38.3862 30.8428 39.3159 30.9344 40.1608 31.2842C41.0056 31.634 41.7278 32.2264 42.2358 32.9864C42.7439 33.7464 43.0151 34.64 43.0151 35.5541C43.0151 36.7798 42.5279 37.9554 41.6608 38.8221C40.7937 39.6889 39.6176 40.1758 38.3913 40.1758Z" fill="white"/>
<path d="M50.3611 33.0856V22.2934H46.5646C46.7867 21.1072 46.929 19.9074 46.9906 18.7022L44.7559 20.362C45.9905 18.9367 44.7559 12.291 44.7559 12.291C44.7559 12.291 43.1261 15.4873 32.965 14.6728C22.8039 13.8583 21.3779 17.8938 21.3779 17.8938C20.1433 16.6597 21.3779 14.642 21.3779 14.642C21.0097 14.812 20.6787 15.0529 20.4037 15.3509C20.1288 15.6488 19.9152 15.9981 19.7753 16.3786C19.6354 16.7591 19.572 17.1634 19.5885 17.5685C19.605 17.9735 19.7012 18.3713 19.8717 18.7392L19.9581 18.9058H16.6678L18.9395 20.362C18.2236 20.8368 17.6734 21.5226 17.3653 22.3243H11.2538V33.0856L9.03149 35.307L11.2538 37.5284L11.8712 48.3206H17.6431L17.0258 36.899C17.0319 36.8612 17.0303 36.8226 17.0211 36.7854C17.0118 36.7483 16.9952 36.7134 16.9721 36.6828C16.949 36.6523 16.92 36.6267 16.8868 36.6077C16.8536 36.5886 16.8169 36.5765 16.7789 36.572C16.7037 36.5613 16.6273 36.5805 16.5661 36.6255C16.5049 36.6705 16.4639 36.7377 16.4517 36.8126C16.4455 36.8411 16.4455 36.8705 16.4517 36.899V45.6611H13.8651V36.8126L12.3465 35.307L13.8589 33.8014V24.9529H16.7357C16.6677 25.6213 16.6553 26.2941 16.6986 26.9645H18.7296C18.8426 25.732 19.4316 24.5921 20.3717 23.7867C23.8287 19.5167 38.4654 22.0096 38.4654 22.0096L40.0889 19.6154L39.4716 22.0096C42.9162 22.8302 43.2126 26.8904 43.2126 26.8904H44.7559C45.2198 26.3082 45.5848 25.6536 45.8362 24.9529H47.7499V33.8014L49.2623 35.307L47.7499 36.8126V45.6611H44.5892L45.2065 48.3206H50.9785L50.3611 37.5284L52.5835 35.307L50.3611 33.0856Z" fill="white"/>
</svg>