<svg width="662" height="649" viewBox="0 0 662 649" fill="none" xmlns="http://www.w3.org/2000/svg">
<mask id="mask0_48_216" style="mask-type:alpha" maskUnits="userSpaceOnUse" x="-180" y="0" width="842" height="836">
<path fill-rule="evenodd" clip-rule="evenodd" d="M-41.662 488.4C-49.362 500.1 -50.162 517.1 -43.762 531.8C-36.562 549.5 -13.2621 563.3 5.23795 566.6L5.03796 566.8L8.33795 567.1C10.338 567.3 11.938 567.4 14.138 567.4C25.538 567.4 35.738 562.8 42.638 554.4C48.938 546.8 51.638 537.1 49.838 527.9C47.738 516.9 40.338 507.7 29.838 503.2L28.438 502.6L28.0461 502.427C23.9059 500.6 20.2099 498.969 16.138 494.8C6.53796 484.8 -4.36205 475.6 -18.462 475.6C-27.962 475.5 -36.262 480.1 -41.662 488.4ZM27.538 508.7C36.038 512.4 42.338 520.2 44.038 529.1C45.638 537.8 42.738 546.3 35.838 553C30.038 558.6 22.738 561.5 14.038 561.5C-6.46204 561.5 -27.962 545.9 -34.162 537.1C-35.762 534.8 -37.162 532.2 -38.262 529.6C-43.9621 515.9 -43.462 501.8 -36.862 491.9C-32.462 485.2 -25.862 481.6 -18.262 481.6C-10.162 481.6 -1.46204 485.9 6.83795 494.1C8.63795 495.8 10.038 497.2 11.138 498.4L11.2256 498.486C15.2627 502.424 17.0138 504.133 27.538 508.7Z" fill="url(#paint0_linear_48_216)"/>
<path fill-rule="evenodd" clip-rule="evenodd" d="M-20.5621 571.6C-54.4621 548.3 -61.4621 513.3 -56.7621 488.3C-52.2621 464.4 -36.9621 446 -17.8621 441.5C-14.9621 440.8 -11.8621 440.5 -8.5621 440.5C-3.46211 440.5 1.7379 441.2 6.7379 442L8.7379 442.3C8.94788 442.352 9.18541 442.377 9.43604 442.404C9.66258 442.428 9.90068 442.453 10.1379 442.5L10.2648 442.518C17.4551 443.516 27.3988 444.896 37.7379 461.2C39.448 463.843 40.856 466.244 42.1498 468.451L42.1513 468.453L42.1561 468.461C42.5245 469.09 42.8837 469.702 43.2379 470.3C47.7215 478.487 49.45 480.31 51.2014 482.156L51.3379 482.3C52.3379 483.3 53.3379 484.3 54.6379 486.1C60.9379 494.8 68.7379 499.1 76.3379 503.2L76.5616 503.323C82.6797 506.677 88.4933 509.865 93.0379 515.2C103.938 527.9 103.838 543 92.5379 560C79.8379 579.2 59.5379 589.8 35.2379 589.8C16.3379 589.8 -3.46211 583.3 -20.5621 571.6ZM8.9379 448.2C7.83789 448.1 6.83789 448 5.7379 447.8L4.2379 447.6C0.837891 447.1 -2.5621 446.6 -5.9621 446.5H-7.16209C-21.4621 446.5 -33.9621 453.7 -42.2621 466.9C-54.6621 486.5 -55.4621 514.3 -44.2621 537.8C-33.7621 559.5 -3.36209 579.8 23.3379 583.1C27.3379 583.6 31.2379 583.8 34.9379 583.8C57.9379 583.8 75.6379 574.7 87.4379 556.7C97.3379 541.8 97.6379 529.8 88.4379 519.1C84.6569 514.64 79.466 511.779 73.8676 508.692L73.3379 508.4C51.3117 496.395 43.1656 482.322 36.5931 470.968L36.4379 470.7C31.0379 461.2 26.6379 453.7 16.3379 449.6C14.3409 448.819 12.1177 448.565 9.93013 448.315C9.72502 448.292 9.52022 448.268 9.31595 448.245L9.10687 448.22L8.9379 448.2Z" fill="url(#paint1_linear_48_216)"/>
<path fill-rule="evenodd" clip-rule="evenodd" d="M-59.562 451.4C-71.462 479 -71.662 512.3 -60.062 540.4C-52.562 558 -37.162 575.7 -17.662 588.9C-2.06201 599.4 23.238 612 55.538 612C64.938 612 74.438 610.9 83.738 608.7C107.338 603 125.538 590.3 139.338 569.8C152.738 550.2 155.538 533.2 147.738 519.3C139.538 504.5 126.438 499.3 114.838 494.7L114.338 494.5C90.838 485.1 86.638 480.2 76.638 466.1C74.838 463.5 73.638 461.4 72.738 458.9C72.138 457.3 71.538 455.7 70.838 454.1L69.038 449.6C61.138 427.6 49.638 404.7 24.938 402.4C24.238 402.3 23.638 402.3 22.838 402.3C20.938 402.3 19.138 402.5 17.338 402.7C17.1694 402.715 17.0031 402.731 16.8384 402.746L15.738 402.85C15.4208 402.88 15.1035 402.91 14.7808 402.941C14.5694 402.96 14.3557 402.98 14.138 403C11.438 403.2 9.03799 403.3 6.638 403.3C-0.962006 403.5 -7.46201 403.7 -16.862 407.3C-35.162 414.5 -50.362 430.1 -59.562 451.4ZM5.88866 409.401C6.58888 409.376 7.27638 409.351 7.93799 409.3L7.93932 409.3C9.33887 409.2 10.7384 409.1 12.138 408.9C15.0377 408.6 17.9383 408.3 21.038 408.3C27.238 408.3 35.538 409.4 44.238 417.5C53.538 426.4 57.838 437.3 62.338 448.9L62.4678 449.228C68.3266 464.026 74.367 479.282 91.838 490.4C98.3774 494.597 105.012 497.27 111.556 499.906L112.038 500.1C119.838 503.2 127.338 506.2 133.338 511.3C141.538 518.2 146.138 527.2 146.038 536.1C145.738 552.4 132.538 571.8 119.538 583.8C103.338 598.6 81.638 606.1 55.038 606.1C50.338 606.1 45.538 605.9 40.538 605.4C2.13799 601.7 -40.562 571.5 -54.662 538.1C-66.762 508.8 -65.262 473.7 -50.762 446.6C-40.262 427 -24.462 414.2 -6.16202 410.5C-3.35234 409.904 -0.470154 409.743 2.36105 409.585L2.36476 409.585L2.3736 409.584C2.86346 409.557 3.35182 409.529 3.83798 409.5C4.52502 409.451 5.21205 409.426 5.88728 409.401H5.88866Z" fill="url(#paint2_linear_48_216)"/>
<path fill-rule="evenodd" clip-rule="evenodd" d="M-36.1622 589C-9.06219 614.4 25.1378 630.7 57.5378 633.7C63.2378 634.2 68.9378 634.4 74.5378 634.4H75.6378C99.5378 634.4 120.738 630 138.738 621.4C157.638 612.3 173.638 598.3 186.338 579.7C204.438 553.6 207.938 531.6 196.738 514.2C185.421 496.233 169.572 491.076 152.81 485.621L152.438 485.5C134.338 479.7 115.738 473.6 101.838 450.6C100.038 447.5 96.7378 441.7 95.8378 437.1C93.9378 427 91.0378 414.5 80.6378 393.9C74.5378 381.4 65.3378 372.4 53.9378 367.8C47.6378 365.3 40.3378 364 32.4378 364C27.5378 364 22.3378 364.5 16.7378 365.4C-12.2622 370.5 -39.1622 388.4 -56.8622 414.8C-75.4622 442.4 -82.8622 476.7 -77.8622 511.5C-76.4622 521.5 -73.9622 531.3 -70.3622 540.7C-63.7622 557.5 -51.8622 574.2 -36.1622 589ZM32.5378 369.8C52.5378 369.8 66.1378 378.3 75.2378 396.4C85.2378 416.3 88.0378 428.4 89.9378 438.1C91.4378 446.2 101.438 467 122.338 479.5C131.538 485 141.138 488.1 150.438 491.1L150.775 491.21C160.751 494.469 170.229 497.566 178.338 503.4C190.338 512 197.238 523.8 197.138 535.9C197.038 557.3 179.238 583.2 161.538 599.4C140.138 618.8 110.938 628.6 74.8378 628.6C69.3378 628.6 63.7378 628.4 58.0378 627.9C27.6378 625.4 -5.96219 609.4 -31.8622 585.1C-47.0622 570.8 -58.4622 554.7 -64.7622 538.6C-68.1622 529.6 -70.6622 520.2 -71.9622 510.7C-82.8622 435.7 -33.8622 380 17.7378 371.4C23.0378 370.2 28.0378 369.8 32.5378 369.8Z" fill="url(#paint3_linear_48_216)"/>
<path fill-rule="evenodd" clip-rule="evenodd" d="M118.638 414.8C119.838 421.1 122.038 427 125.338 432.5C143.038 462.8 166.938 469.5 190.038 475.9L190.082 475.912C202.966 479.508 215.151 482.908 226.338 490.1C243.538 501 253.838 517.9 254.038 535.3C254.038 551.6 247.238 569.3 233.138 589.4C210.638 622.2 182.438 641.8 144.338 651C128.538 654.7 111.338 656.7 94.7379 656.7C70.3379 656.7 47.2379 652.5 27.9379 644.6C11.9379 638.2 -3.26215 629.8 -17.2621 619.6C-37.5621 604.9 -53.8621 588.1 -65.8621 569.7C-78.7621 549.8 -86.6621 527.8 -89.2621 504.5C-91.6621 483.6 -90.4621 462.7 -85.4621 442.2C-80.7621 423.1 -73.0621 405.2 -62.2621 388.8C-52.1621 373.3 -39.5621 359.8 -24.6621 348.8C-3.66214 333 22.8379 323.6 46.1379 323.6C71.7379 323.6 90.5378 335.7 101.938 359.7C114.246 385.607 116.603 401.366 118.496 414.018L118.538 414.3L118.638 414.8ZM45.9379 329.7C39.1378 329.7 31.7379 330.7 23.9379 332.5C-47.3622 352.9 -92.4621 425 -83.4621 504C-82.1621 515.8 -79.3621 527.5 -75.2621 538.7C-53.9621 595.6 13.5379 645.6 75.2379 650.1C81.8379 650.6 88.4379 650.8 94.7379 650.8C140.138 650.8 176.638 638.7 203.338 614.7C225.638 594.3 248.138 561.9 248.038 535.4C248.038 520.3 238.638 505.3 223.038 495.2C212.649 488.507 200.863 485.207 188.378 481.711L188.338 481.7L186.888 481.283C175.533 478.017 163.759 474.63 152.538 468.3C132.638 457 116.238 435.4 112.738 415.8L112.538 414.5C110.738 402.4 108.438 387.3 96.5378 362.4C86.2379 340.7 69.2379 329.7 45.9379 329.7Z" fill="url(#paint4_linear_48_216)"/>
<path fill-rule="evenodd" clip-rule="evenodd" d="M227.877 466.36C242.502 470.041 257.61 473.844 270.938 481.9C291.838 494.2 304.838 514.6 305.038 535C305.138 554.2 296.938 575.3 280.038 599.3C251.738 639.4 220.238 661.2 174.638 672.2C155.238 676.8 135.238 679.1 115.238 679.1H113.538C87.938 679 66.238 676.7 37.238 665.2C-21.362 641.7 -92.662 583.8 -100.562 497.9C-105.062 450.9 -93.462 403.2 -68.062 363.5C-51.962 338.2 -30.662 317.3 -6.26202 303.1C15.338 290.5 38.638 283.5 59.438 283.5C68.938 283.5 77.638 284.9 85.238 287.8C101.838 294.1 114.638 306.9 123.338 325.9C137.149 355.792 139.379 374.394 141.165 389.292L141.238 389.9C142.238 398.5 143.938 405.9 148.938 414.6C170.338 452 199.438 459.3 227.638 466.3L227.877 466.36ZM299.038 535C298.938 516.6 287.238 498.7 267.838 487C255.138 479.3 241.038 475.8 226.138 472.2C211.638 468.6 196.738 464.9 182.638 457.1C158.038 443.6 138.738 417.4 135.638 393.5L135.438 391.7L135.402 391.397C133.511 375.669 131.352 357.712 117.938 328.5C114.038 319.7 108.638 311.9 101.738 305.3C90.838 295 75.838 289.6 58.438 289.6C24.638 289.6 -14.862 309.9 -44.562 342.6C-82.362 384.2 -100.162 439.2 -94.562 497.4C-85.662 593.5 11.338 666.8 92.838 672.4C99.738 672.9 106.638 673.1 113.438 673.1C151.638 673.1 205.638 665.6 245.338 630.1C267.038 610.7 299.338 569.3 299.038 535Z" fill="url(#paint5_linear_48_216)"/>
<path fill-rule="evenodd" clip-rule="evenodd" d="M172.438 396.7C167.938 388.6 165.238 379.8 164.338 370.6C164.288 369.9 164.213 369.2 164.138 368.5C164.063 367.8 163.988 367.1 163.938 366.4C162.338 348.8 160.238 326.8 144.638 292C134.738 269.9 120.038 255.1 100.838 247.9C92.2379 244.7 82.6379 243 72.4379 243C29.1379 243 -32.9621 272.4 -73.9621 338.1C-87.8621 360.2 -98.2621 384.2 -104.762 409.5C-126.962 495.3 -98.8621 558.3 -71.4621 596C-49.4621 626.1 -19.4621 652.1 15.5379 671.2C47.2379 688.5 81.0379 699 110.838 700.7L111.938 700.8C119.038 701.2 126.138 701.4 133.038 701.4C178.938 701.4 243.738 692.5 291.338 650C303.638 639 315.338 625.6 327.138 609.1C346.938 581.2 356.438 556.8 356.138 534.6C356.038 521.9 351.838 509.8 343.738 498.6C322.638 469.9 295.038 463.6 265.938 457L265.923 456.997C232.228 449.298 197.634 441.393 172.438 396.7ZM350.038 534.6C350.238 555.5 341.138 578.7 322.138 605.6C310.638 621.8 299.238 634.8 287.238 645.5C241.038 686.7 177.838 695.4 132.938 695.4C125.438 695.4 117.838 695.2 110.138 694.7C25.038 689.3 -67.2621 619.5 -95.7621 539.1C-114.862 484.6 -109.662 420.6 -81.3621 363.4C-55.2621 310.5 -12.162 271 36.7379 255C49.6379 250.9 61.7379 248.9 72.838 248.9H72.9379C91.7379 248.9 107.638 254.9 120.138 266.6C127.738 273.7 134.238 283.1 139.238 294.5C154.438 328.4 156.438 349.7 158.038 366.9C158.088 367.65 158.163 368.375 158.238 369.1C158.313 369.825 158.388 370.55 158.438 371.3C160.338 390.9 172.038 412.3 190.538 430.1C212.931 451.093 238.821 456.996 263.813 462.694L263.838 462.7L264.527 462.858C281.671 466.799 297.835 470.514 312.538 479C335.738 492.1 349.838 513 350.038 534.6Z" fill="url(#paint6_linear_48_216)"/>
<path fill-rule="evenodd" clip-rule="evenodd" d="M402.938 512.5C405.438 519.4 406.838 526.8 406.938 534.2C407.138 548.2 403.838 563.3 397.238 579.2C391.838 591.7 384.238 604.7 374.138 618.9C360.638 637.8 347.338 653 333.338 665.5C279.138 713.7 205.238 723.8 152.738 723.8C144.438 723.7 135.838 723.5 127.338 723C93.8379 721 55.8379 709.2 20.2379 689.6C-18.9621 668 -52.7621 638.6 -77.3621 604.6C-108.362 561.8 -139.862 490.4 -114.262 393.2C-106.862 364.7 -95.1621 337.7 -79.6621 312.7C-59.1621 279.4 -32.1621 251.4 -1.56213 231.7C25.8379 214 55.2379 203.7 81.2379 202.7C82.8376 202.6 84.3374 202.6 85.9371 202.6C96.3371 202.6 106.638 204.4 116.538 207.9C127.238 212 137.238 218.4 145.238 226.6C153.538 235.1 160.538 245.7 166.038 258.2C183.338 297.6 185.238 322.3 186.738 342.1C186.834 343.16 186.907 344.196 186.98 345.221C187.057 346.323 187.134 347.412 187.238 348.5C188.238 360.1 191.038 369.8 196.038 378.8C224.938 430.8 264.938 439.3 303.638 447.5L303.772 447.529C336.923 454.618 368.371 461.343 392.638 493.5C396.938 499.3 400.438 505.7 402.938 512.5ZM401.038 534.2C400.638 509.3 384.338 485.6 357.238 470.7C340.038 461.2 321.338 457.3 301.538 453.2C272.738 447.1 243.038 440.8 217.338 416.7C207.238 407.2 198.538 395.7 190.738 381.7C182.538 366.9 181.538 353.9 180.838 344.4L180.738 342.8L180.716 342.512C179.22 323.061 177.355 298.811 160.538 260.6C145.638 226.6 119.638 208.6 85.5379 208.6C72.2379 208.6 57.7379 211.3 42.3379 216.6C-74.7621 257.3 -148.262 417.1 -105.962 539.4C-70.1621 642.7 43.1379 712 127.538 717.1C135.838 717.6 144.238 717.8 152.338 717.8C203.838 717.8 276.338 708 329.138 661C342.838 648.8 355.838 633.9 369.038 615.4C390.938 584.6 401.338 558.1 401.038 534.2Z" fill="url(#paint7_linear_48_216)"/>
<path fill-rule="evenodd" clip-rule="evenodd" d="M209.538 318.3C209.638 321.1 209.838 323.7 210.038 326.3C211.038 340 213.938 350.6 219.638 360.9C252.338 420.2 297.538 429.3 341.338 438L341.701 438.073C378.967 445.546 414.227 452.616 441.738 488.4C446.638 494.9 450.538 502 453.438 509.6C456.338 517.4 457.938 525.6 458.038 533.9C458.338 549.6 454.538 566.6 446.838 584.3C440.838 598.3 432.338 612.8 420.938 628.8C405.738 650 390.838 667.1 375.138 681C314.438 734.9 231.238 746.2 172.138 746.2H171.838C162.938 746.2 153.838 745.9 144.638 745.4C93.6378 742.5 36.2379 720 -12.6622 683.7C-23.7622 675.5 -34.4622 666.6 -44.5622 657.2C-80.9622 623.2 -107.662 583.2 -121.962 541.5C-138.662 492.6 -139.462 434.2 -124.062 376.8C-115.662 345.3 -102.762 315.1 -85.6622 287.3C-69.5622 260.9 -49.6622 237.1 -26.4622 216.7C-3.66216 196.8 20.9378 181.8 46.4378 172.4C62.5378 166.4 77.9378 163 92.3378 162.3C94.4378 162.2 96.5378 162.1 98.6378 162.1C110.138 162.1 121.338 164.1 132.138 167.9C144.238 172.3 155.338 179.6 164.338 188.8C173.638 198.3 181.338 210.2 187.438 224.2C206.392 268.195 208.13 295.867 209.528 318.14L209.538 318.3ZM144.938 739.4C154.038 739.9 163.238 740.2 172.138 740.2C230.138 740.2 311.738 729.1 371.038 676.4C386.338 662.8 401.038 646.1 415.938 625.2C440.638 590.5 452.438 560.6 452.038 533.8C451.538 505.7 432.838 479 401.938 462.5C382.651 452.26 361.783 448.049 339.628 443.579L338.941 443.44C294.333 434.459 248.163 425.163 214.338 363.6C205.345 347.313 204.439 332.823 203.64 320.03L203.638 320L203.538 318.5L203.525 318.302C202.127 296.635 200.381 269.569 181.838 226.6C165.338 188.4 136.338 168.2 97.9378 168.2C82.6378 168.2 65.9378 171.5 48.4378 178C-58.3622 217.5 -136.062 349.1 -128.462 477.6C-124.762 541.9 -94.4622 602.4 -41.0622 652.5C12.3378 702.6 83.6378 735.9 144.938 739.4Z" fill="url(#paint8_linear_48_216)"/>
<path fill-rule="evenodd" clip-rule="evenodd" d="M232.838 304.1C233.538 315.3 235.338 328.7 243.038 342.8C279.538 409.5 330.538 419.2 380.038 428.5L380.337 428.557C421.727 436.436 460.91 443.895 490.738 483.1C496.238 490.2 500.638 498.1 503.838 506.5C507.138 515.2 508.838 524.2 509.038 533.4C509.338 550.8 505.238 569.6 496.638 589.2C489.938 604.7 480.438 620.8 467.838 638.5C450.938 662 434.338 680.9 417.038 696.3C385.038 724.7 344.238 745.1 295.938 756.8C263.838 764.6 228.738 768.5 191.538 768.5C150.838 768.5 118.638 765 74.238 747.5C43.638 735.4 14.838 719.3 -11.562 699.7C-23.662 690.8 -35.362 681.1 -46.362 670.8C-86.862 632.9 -116.562 588.3 -132.262 541.7C-150.462 488.3 -150.962 424 -133.762 360.6C-124.562 325.9 -110.362 292.7 -91.662 262C-74.062 232.8 -52.362 206.5 -27.062 183.7C-2.16202 161.4 24.638 144.6 52.438 133.8C70.338 126.9 87.438 122.9 103.538 121.9L103.827 121.889C106.324 121.793 108.731 121.7 111.138 121.7C124.138 121.7 136.438 123.8 147.738 127.9C161.138 132.8 173.438 140.9 183.338 151.1C193.538 161.6 202.138 174.8 208.738 190.3C229.408 238.894 231.018 269.515 232.314 294.135L232.338 294.6C232.438 297.5 232.638 300.9 232.838 304.1ZM446.638 454.3C425.038 443.1 401.638 438.6 376.938 433.9L376.927 433.898C327.03 424.399 275.535 414.595 237.938 345.5C228.038 327.6 227.238 311.3 226.538 296.9L226.438 295.1C225.238 270.8 223.638 240.5 203.238 192.5C196.238 176.1 187.038 162.5 175.938 152.1C158.438 135.8 136.738 127.5 111.138 127.5C93.538 127.5 74.538 131.5 54.438 139.3C-61.762 184.5 -147.062 330.2 -139.862 471C-136.262 541.7 -101.862 611 -42.962 666.2C15.938 721.4 94.638 758 162.238 761.7C171.938 762.2 181.638 762.5 191.138 762.5C256.038 762.5 347.038 750.2 413.038 691.7C430.038 676.7 446.338 658.1 462.938 634.9C490.438 596.4 503.538 563.2 503.038 533.4C502.338 496.4 473.438 468.3 446.638 454.3Z" fill="url(#paint9_linear_48_216)"/>
<path fill-rule="evenodd" clip-rule="evenodd" d="M-27.7621 150.5C-55.1621 175.6 -78.7621 204.5 -97.7621 236.5C-118.062 270.1 -133.462 306.3 -143.662 344.2C-159.062 401.1 -162.062 455.2 -152.362 504.8C-143.162 552.1 -122.162 597.1 -90.0621 638.6C-77.3621 654.9 -63.2621 670.3 -48.2621 684.5C-23.0621 708.1 5.13788 728.6 35.2379 745.5C50.6379 754.1 66.8379 761.7 83.2379 768.2C98.9379 774.4 115.238 779.5 131.738 783.3C146.138 786.6 160.838 788.9 175.538 789.9L179.238 790.1C189.638 790.6 200.038 790.9 210.238 790.9H210.538C224.738 790.9 238.738 790.4 252.238 789.4C277.038 787.6 301.838 783.8 326.038 778C379.038 765.2 423.638 742.9 458.738 711.8C477.738 695 495.938 674.2 514.538 648.3C528.438 628.9 538.838 611.2 546.238 594.2C555.638 572.7 560.238 552.1 559.838 533C559.638 522.9 557.638 513 554.038 503.6C550.438 494.4 545.538 485.8 539.538 478C528.038 463.1 512.238 450.3 493.938 440.9C469.573 428.37 442.538 423.454 416.275 418.68L415.769 418.587C362.09 408.791 306.621 398.668 266.538 324.9C258.238 309.6 256.338 295.2 255.638 282C255.438 278.4 255.238 274.8 255.138 271C254.038 243.9 252.638 210.1 230.038 156.5C222.838 139.5 213.538 125 202.238 113.4C191.338 102.1 177.838 93.3 163.138 87.9C150.938 83.5 137.738 81.2 123.738 81.2C120.738 81.2 117.638 81.3 114.538 81.5C96.8379 82.7 77.9379 87.3 58.3379 95.3C28.1379 107.4 -0.762115 126 -27.7621 150.5ZM491.238 446.2C521.038 461.4 553.138 492.3 553.938 533.1C554.538 565.8 540.138 602.4 509.738 644.8C491.438 670.3 473.538 690.8 454.838 707.3C382.438 771.4 282.238 784.9 210.938 784.9C200.638 784.9 190.138 784.6 179.638 784.1C105.738 780.3 19.8379 740.3 -44.6621 679.8C-109.762 618.7 -147.562 542.2 -151.162 464.4C-157.962 311.4 -64.9621 151.6 60.5379 100.7C82.5379 91.8 103.638 87.3 123.138 87.3C151.338 87.3 175.438 96.5 194.738 114.6C206.938 126 216.938 140.9 224.438 158.7C245.038 207.5 247.838 238.7 249.138 271.5L249.238 272.9C249.938 290.2 250.738 308.1 261.338 327.7C302.738 404 359.638 414.4 414.638 424.4C441.738 429.3 467.438 434 491.238 446.2Z" fill="url(#paint10_linear_48_216)"/>
<path fill-rule="evenodd" clip-rule="evenodd" d="M-28.4621 117.5C-57.1621 144 -82.5621 175.5 -103.962 211.1C-125.762 247.5 -142.462 286.8 -153.562 327.8C-165.062 370.2 -170.062 414.1 -168.362 458C-167.062 491.7 -159.962 525.3 -147.262 557.7C-135.062 588.9 -117.762 619.1 -95.7621 647.6C-81.8621 665.5 -66.4621 682.5 -49.8621 698C-22.5621 723.6 7.83789 745.7 40.5379 764C57.2379 773.3 74.8379 781.6 92.6379 788.7C109.738 795.4 127.438 800.9 145.238 805.1C162.138 809 179.438 811.5 196.738 812.4C207.838 813 218.938 813.2 229.838 813.2H230.038C245.738 813.2 261.238 812.6 276.138 811.5C303.138 809.5 330.138 805.4 356.438 799.1C414.138 785.1 462.638 760.9 500.738 727.2C521.438 708.9 541.338 686.3 561.538 658.1C576.738 636.9 588.038 617.7 596.038 599.3C600.738 588.8 604.438 577.8 607.138 566.6C609.838 555.5 611.038 544.1 610.938 532.6C610.738 521.6 608.538 510.9 604.538 500.6C600.638 490.6 595.238 481.3 588.638 472.8C576.038 456.6 558.738 442.7 538.638 432.6C512.019 419.191 482.638 413.971 454.12 408.903L453.365 408.769C394.719 398.379 333.995 387.62 290.138 306.7C281.638 291 279.338 276.5 278.538 259.5C278.428 257.361 278.349 255.191 278.266 252.942C278.198 251.091 278.128 249.186 278.038 247.2V247.1C277.038 217.5 275.738 180.7 251.338 122.2C243.938 104.4 234.338 89.2 222.738 76.9C211.638 64.9 197.738 55.3 182.638 49C168.438 43.2 152.838 40.2 136.238 40.2C133.538 40.2 130.738 40.3 128.038 40.4C107.938 41.5 86.4379 46.9 64.2379 56.2C31.8379 70.2 0.637894 90.7 -28.4621 117.5ZM137.538 46.6C152.338 46.6 166.738 49.4 180.438 54.9C192.538 59.9 203.538 67 213.038 76C226.538 88.7 237.638 105.1 245.838 124.8C269.79 182.186 271.033 218.356 272.032 247.426L272.038 247.6V247.9L272.058 248.444C272.849 270.013 273.533 288.677 284.838 309.7C330.106 393.141 392.05 404.085 452.011 414.678L452.138 414.7C481.738 419.9 509.738 424.9 535.938 438C568.738 454.5 604.038 488 604.938 532.7C605.638 568.4 589.838 608.3 556.638 654.6C536.638 682.5 517.038 704.8 496.738 722.7C417.738 792.5 308.338 807.2 230.338 807.2C219.438 807.2 208.138 806.9 197.038 806.4C116.938 802.4 23.6379 759.1 -46.3621 693.4C-93.8621 648.9 -128.662 595.9 -147.262 540.2C-156.162 513.6 -161.262 485.8 -162.462 457.8C-169.262 289.8 -70.7621 119.7 66.5379 62.1C91.0379 51.8 114.538 46.6 136.338 46.6H137.538Z" fill="url(#paint11_linear_48_216)"/>
<path fill-rule="evenodd" clip-rule="evenodd" d="M654.838 497.7C650.538 486.9 644.738 476.8 637.538 467.7C623.838 450.2 605.038 435.3 583.238 424.5C570.138 418 555.338 412.8 537.938 408.5C522.654 404.704 506.672 402.006 491.287 399.408L491.238 399.4L491.099 399.376C427.242 388.484 361.303 377.236 313.738 288.9C302.194 267.405 301.643 248.187 300.948 223.954L300.938 223.6L300.936 223.524C300.036 191.537 298.917 151.75 272.738 88.5C264.738 69.3 254.338 52.7 241.938 39.4C229.938 26.4 214.838 16 198.438 9.2C183.238 3.1 166.638 0 149.038 0C145.838 0 142.538 0.1 139.238 0.3C117.438 1.7 94.2379 7.6 70.2379 18C52.3379 25.8 35.0379 35.3 18.8379 46.2C1.93793 57.6 -14.1621 70.5 -29.0621 84.4C-44.5621 98.9 -59.1621 114.7 -72.3621 131.3C-86.0621 148.5 -98.6621 166.8 -109.962 185.6C-133.262 225 -151.162 267.3 -163.162 311.4C-175.662 357 -181.262 404.1 -179.762 451.4C-177.162 525.3 -148.462 598.5 -96.5621 663C-82.7621 680.2 -67.5621 696.6 -51.4621 711.7L-43.6621 718.9C-24.7621 735.8 -4.46208 751.4 16.8379 765.3C37.5379 778.8 59.4379 790.8 81.9379 800.9C103.438 810.6 125.838 818.6 148.738 824.5C170.138 830.1 192.138 833.5 214.238 834.7C226.038 835.3 237.838 835.6 249.438 835.6C266.638 835.6 283.638 835 299.938 833.7C329.038 831.6 358.238 827 386.738 820.3C449.038 805.2 501.538 779.1 542.638 742.7C564.938 723 586.538 698.5 608.438 667.9C624.838 645 637.138 624.2 645.838 604.3C650.838 592.9 654.938 581.1 657.838 569C660.738 557 662.038 544.6 661.938 532.3C661.538 520.4 659.238 508.8 654.838 497.7ZM150.238 6C166.038 6 181.438 9 196.038 14.8C209.238 20.2 221.238 27.9 231.538 37.7C246.238 51.5 258.138 69.3 267.038 90.8C292.838 153 293.938 192.3 294.738 223.8C295.438 249 296.038 268.9 308.238 291.8C330.238 332.7 357.938 361.1 392.938 378.6C423.68 394.07 456.782 399.706 488.832 405.163L489.638 405.3L490.753 405.491C522.442 410.919 552.465 416.062 580.338 429.9C616.038 447.6 654.638 483.8 655.638 532.4C656.438 571.1 639.338 614.3 603.338 664.5C581.638 694.7 560.438 718.8 538.438 738.3C452.938 813.9 334.138 829.7 249.538 829.7C237.938 829.7 226.038 829.4 214.138 828.8C126.438 824.5 28.8379 779.6 -46.9621 708.5C-125.462 634.6 -170.562 543.2 -173.762 451.2C-179.962 270.6 -74.0621 86.7 72.6379 23.4C99.4379 11.9 125.138 6 149.038 6H150.238Z" fill="url(#paint12_linear_48_216)"/>
</mask>
<g mask="url(#mask0_48_216)">
<g filter="url(#filter0_f_48_216)">
<circle cx="293.743" cy="424.944" r="428.5" transform="rotate(-178.465 293.743 424.944)" fill="#0B5EFF"/>
<circle cx="-104.363" cy="386.265" r="104.5" transform="rotate(-178.465 -104.363 386.265)" fill="#FF20B9"/>
<circle cx="46.2762" cy="588.373" r="162.5" transform="rotate(-178.465 46.2762 588.373)" fill="#4200FF"/>
<circle cx="275.313" cy="403.442" r="104.5" transform="rotate(-178.465 275.313 403.442)" fill="#4200FF"/>
<circle cx="117.038" cy="486.232" r="104.5" transform="rotate(-178.465 117.038 486.232)" fill="#FF20B9"/>
<circle cx="35.8809" cy="379.019" r="104.5" transform="rotate(-178.465 35.8809 379.019)" fill="#FF20B9"/>
<circle cx="165.576" cy="317.472" r="104.5" transform="rotate(-178.465 165.576 317.472)" fill="black"/>
<circle cx="220.803" cy="571.042" r="104.5" transform="rotate(-178.465 220.803 571.042)" fill="black"/>
<circle cx="382.821" cy="553.876" r="111" transform="rotate(-178.465 382.821 553.876)" fill="black"/>
<circle cx="-18.4056" cy="221.008" r="111" transform="rotate(-178.465 -18.4056 221.008)" fill="black"/>
<circle cx="19.0564" cy="54.9524" r="111" transform="rotate(-178.465 19.0564 54.9524)" fill="#0B5EFF"/>
<circle cx="363.913" cy="214.248" r="149" transform="rotate(-178.465 363.913 214.248)" fill="black"/>
<circle cx="604.348" cy="611.831" r="149" transform="rotate(-178.465 604.348 611.831)" fill="black"/>
<circle cx="567.959" cy="625.862" r="156" transform="rotate(-178.465 567.959 625.862)" fill="black"/>
</g>
</g>
<defs>
<filter id="filter0_f_48_216" x="-565.021" y="-260.12" width="1518.37" height="1313.57" filterUnits="userSpaceOnUse" color-interpolation-filters="sRGB">
<feFlood flood-opacity="0" result="BackgroundImageFix"/>
<feBlend mode="normal" in="SourceGraphic" in2="BackgroundImageFix" result="shape"/>
<feGaussianBlur stdDeviation="100" result="effect1_foregroundBlur_48_216"/>
</filter>
<linearGradient id="paint0_linear_48_216" x1="-220.736" y1="367.511" x2="458.568" y2="630.176" gradientUnits="userSpaceOnUse">
<stop stop-color="#FC5050"/>
<stop offset="0.56" stop-color="#7E4CA8"/>
<stop offset="1" stop-color="#0048FF"/>
</linearGradient>
<linearGradient id="paint1_linear_48_216" x1="-220.736" y1="367.511" x2="458.568" y2="630.176" gradientUnits="userSpaceOnUse">
<stop stop-color="#FC5050"/>
<stop offset="0.56" stop-color="#7E4CA8"/>
<stop offset="1" stop-color="#0048FF"/>
</linearGradient>
<linearGradient id="paint2_linear_48_216" x1="-220.736" y1="367.511" x2="458.568" y2="630.176" gradientUnits="userSpaceOnUse">
<stop stop-color="#FC5050"/>
<stop offset="0.56" stop-color="#7E4CA8"/>
<stop offset="1" stop-color="#0048FF"/>
</linearGradient>
<linearGradient id="paint3_linear_48_216" x1="-220.736" y1="367.511" x2="458.568" y2="630.176" gradientUnits="userSpaceOnUse">
<stop stop-color="#FC5050"/>
<stop offset="0.56" stop-color="#7E4CA8"/>
<stop offset="1" stop-color="#0048FF"/>
</linearGradient>
<linearGradient id="paint4_linear_48_216" x1="-220.736" y1="367.511" x2="458.568" y2="630.176" gradientUnits="userSpaceOnUse">
<stop stop-color="#FC5050"/>
<stop offset="0.56" stop-color="#7E4CA8"/>
<stop offset="1" stop-color="#0048FF"/>
</linearGradient>
<linearGradient id="paint5_linear_48_216" x1="-220.736" y1="367.511" x2="458.568" y2="630.176" gradientUnits="userSpaceOnUse">
<stop stop-color="#FC5050"/>
<stop offset="0.56" stop-color="#7E4CA8"/>
<stop offset="1" stop-color="#0048FF"/>
</linearGradient>
<linearGradient id="paint6_linear_48_216" x1="-220.736" y1="367.511" x2="458.568" y2="630.176" gradientUnits="userSpaceOnUse">
<stop stop-color="#FC5050"/>
<stop offset="0.56" stop-color="#7E4CA8"/>
<stop offset="1" stop-color="#0048FF"/>
</linearGradient>
<linearGradient id="paint7_linear_48_216" x1="-220.736" y1="367.511" x2="458.568" y2="630.176" gradientUnits="userSpaceOnUse">
<stop stop-color="#FC5050"/>
<stop offset="0.56" stop-color="#7E4CA8"/>
<stop offset="1" stop-color="#0048FF"/>
</linearGradient>
<linearGradient id="paint8_linear_48_216" x1="-220.736" y1="367.511" x2="458.568" y2="630.176" gradientUnits="userSpaceOnUse">
<stop stop-color="#FC5050"/>
<stop offset="0.56" stop-color="#7E4CA8"/>
<stop offset="1" stop-color="#0048FF"/>
</linearGradient>
<linearGradient id="paint9_linear_48_216" x1="-220.736" y1="367.511" x2="458.568" y2="630.176" gradientUnits="userSpaceOnUse">
<stop stop-color="#FC5050"/>
<stop offset="0.56" stop-color="#7E4CA8"/>
<stop offset="1" stop-color="#0048FF"/>
</linearGradient>
<linearGradient id="paint10_linear_48_216" x1="-220.736" y1="367.511" x2="458.568" y2="630.176" gradientUnits="userSpaceOnUse">
<stop stop-color="#FC5050"/>
<stop offset="0.56" stop-color="#7E4CA8"/>
<stop offset="1" stop-color="#0048FF"/>
</linearGradient>
<linearGradient id="paint11_linear_48_216" x1="-220.736" y1="367.511" x2="458.568" y2="630.176" gradientUnits="userSpaceOnUse">
<stop stop-color="#FC5050"/>
<stop offset="0.56" stop-color="#7E4CA8"/>
<stop offset="1" stop-color="#0048FF"/>
</linearGradient>
<linearGradient id="paint12_linear_48_216" x1="-220.736" y1="367.511" x2="458.568" y2="630.176" gradientUnits="userSpaceOnUse">
<stop stop-color="#FC5050"/>
<stop offset="0.56" stop-color="#7E4CA8"/>
<stop offset="1" stop-color="#0048FF"/>
</linearGradient>
</defs>
</svg>
