<svg xmlns:xlink="http://www.w3.org/1999/xlink" xmlns="http://www.w3.org/2000/svg" width="72" height="72" viewBox="0 0 72 72" fill="none">
<g id="Gear3">
<path id="Gear" fill-rule="evenodd" clip-rule="evenodd" d="M21.429 10.8926C21.451 11.301 21.2475 11.6872 20.9052 11.9096C20.3011 12.3021 19.7129 12.717 19.1416 13.1532C18.8143 13.4031 18.3784 13.4632 18.0008 13.2994L11.5114 10.485C11.047 10.2836 10.5056 10.4218 10.1938 10.8214L6.25003 15.8754C5.93663 16.2771 5.93468 16.8407 6.24527 17.2445L10.4294 22.6842C10.6887 23.0213 10.7323 23.4764 10.5539 23.8628C10.1729 24.6882 9.83007 25.535 9.52786 26.4009C9.39252 26.7886 9.0641 27.0789 8.66107 27.1524L1.77417 28.4083C1.30517 28.4938 0.942637 28.8695 0.872779 29.3424L0.0120924 35.169C-0.0661582 35.6988 0.241926 36.2095 0.746088 36.3859L7.45305 38.7324C7.85767 38.874 8.14333 39.2363 8.20091 39.6622C8.32695 40.5942 8.49799 41.5119 8.71177 42.413C8.80621 42.8111 8.68738 43.2316 8.39002 43.5118L3.25196 48.3525C2.89847 48.6856 2.80086 49.2099 3.01074 49.6485L5.61141 55.0823C5.83606 55.5517 6.35456 55.8029 6.86079 55.6875L13.7985 54.1061C14.2073 54.0129 14.6322 54.1594 14.9075 54.4765C15.534 55.198 16.1961 55.8877 16.8912 56.5425C17.1841 56.8184 17.3164 57.227 17.2292 57.6204L15.6295 64.84C15.5234 65.3192 15.742 65.8117 16.1681 66.0533L21.07 68.832C21.524 69.0894 22.0953 68.9959 22.4442 68.6071L27.1004 63.4184C27.3939 63.0914 27.8511 62.9698 28.2719 63.0942C29.3603 63.4161 30.4759 63.6743 31.6145 63.8644C32.0339 63.9345 32.3844 64.2277 32.5156 64.6334L34.6484 71.2285C34.8065 71.7176 35.2774 72.0349 35.7887 71.9969L41.5874 71.5661C42.0838 71.5293 42.4953 71.1662 42.5951 70.6771L43.9936 63.82C44.0766 63.4126 44.3793 63.0872 44.775 62.9632C45.6709 62.6826 46.5478 62.3586 47.4031 61.9937C47.7886 61.8292 48.2343 61.8834 48.5614 62.1458L53.9798 66.4932C54.3806 66.8148 54.9488 66.8196 55.3549 66.5048L60.142 62.795C60.5231 62.4996 60.6714 61.9918 60.5094 61.5369L58.1276 54.8485C57.9938 54.4727 58.0717 54.0548 58.3229 53.7452C58.8816 53.0564 59.4089 52.341 59.9024 51.601C60.1399 51.2449 60.5534 51.0453 60.9777 51.0948L67.6997 51.8787C68.2092 51.9381 68.6932 51.6404 68.8713 51.158L71.0561 45.2419C71.2292 44.7732 71.0703 44.2462 70.6672 43.9522L64.9798 39.8038C64.6517 39.5645 64.4813 39.1651 64.523 38.7604C64.6184 37.8336 64.6695 36.8937 64.6741 35.9427C64.6797 34.7667 71.385 32.5774 71.385 32.5774C71.8513 32.3436 72.0931 31.8163 71.9667 31.309L70.4338 25.1596C70.3163 24.688 69.9078 24.347 69.424 24.3167L62.7203 23.8965C62.3129 23.871 61.9537 23.6228 61.7734 23.2555C61.4614 22.6199 61.1265 21.9976 60.7697 21.3899C60.557 21.0275 60.5531 20.5769 60.7706 20.2175L64.2212 14.5176C64.4873 14.0781 64.4194 13.5132 64.0569 13.1497L59.4161 8.49534C59.0704 8.1486 58.5395 8.06892 58.1077 8.29898L52.1122 11.4934C51.7581 11.682 51.3312 11.6635 50.9883 11.4551C50.4593 11.1336 49.919 10.829 49.3682 10.5419C49.0007 10.3504 48.7598 9.97731 48.7489 9.5621L48.5669 2.62314C48.5537 2.1223 48.2093 1.69167 47.7247 1.57015L41.5956 0.0334141C41.1027 -0.0901844 40.5889 0.136937 40.3472 0.585243L36.8829 7.01304C36.769 7.22425 36.5477 7.35399 36.3083 7.35399C35.5277 7.35399 34.7545 7.38562 33.9898 7.44765C33.5887 7.48019 33.1974 7.30362 32.9653 6.97392L28.9981 1.33722C28.7151 0.935203 28.203 0.766586 27.7375 0.922195L21.8176 2.90126C21.3423 3.06016 21.0315 3.51813 21.0586 4.01988L21.429 10.8926ZM15.3712 35.803C15.3712 47.4 24.7451 56.8013 36.3083 56.8013C47.8715 56.8013 57.2453 47.4 57.2453 35.803C57.2453 24.206 47.8715 14.8048 36.3083 14.8048C24.7451 14.8048 15.3712 24.206 15.3712 35.803Z" fill="url(#paint0_radial)"/>
<path id="ring" fill-rule="evenodd" clip-rule="evenodd" d="M20.5083 35.5C20.5083 44.332 27.668 51.4917 36.5 51.4917C45.332 51.4917 52.4917 44.332 52.4917 35.5C52.4917 26.668 45.332 19.5083 36.5 19.5083C27.668 19.5083 20.5083 26.668 20.5083 35.5ZM36.5 53.9412C26.3152 53.9412 18.0588 45.6848 18.0588 35.5C18.0588 25.3152 26.3152 17.0588 36.5 17.0588C46.6848 17.0588 54.9412 25.3152 54.9412 35.5C54.9412 45.6848 46.6848 53.9412 36.5 53.9412Z" fill="#FF888F"/>
<circle id="RedStroke" cx="36.5" cy="35.5" r="24.5" stroke="url(#paint1_linear)" stroke-width="8"/>
</g>
<defs>
<radialGradient id="paint0_radial" cx="0" cy="0" r="1" gradientUnits="userSpaceOnUse" gradientTransform="translate(36.0554 36.1506) rotate(99.9715) scale(36.6918 36.6982)">
<stop stop-color="#FEBA7C"/>
<stop offset="0.647477" stop-color="#ECA768"/>
<stop offset="1" stop-color="#FDA6B6"/>
</radialGradient>
<linearGradient id="paint1_linear" x1="36.5" y1="7" x2="36.5" y2="64" gradientUnits="userSpaceOnUse">
<stop stop-color="#FF88BB"/>
<stop offset="0.508772" stop-color="#FFA5AC"/>
<stop offset="0.513158" stop-color="#FF90B7"/>
<stop offset="1" stop-color="#FFCA9A"/>
</linearGradient>
</defs>
</svg>