<svg width="100%" height="100%" id="svg" viewBox="0 0 1440 590" xmlns="http://www.w3.org/2000/svg" class="transition duration-300 ease-in-out delay-150"><defs><linearGradient id="gradient" x1="0%" y1="50%" x2="100%" y2="50%"><stop offset="5%" stop-color="#111121"></stop><stop offset="95%" stop-color="#8ED1FC"></stop></linearGradient></defs><path d="M 0,600 C 0,600 0,200 0,200 C 76.27751196172247,216.9377990430622 152.55502392344494,233.8755980861244 251,224 C 349.44497607655506,214.1244019138756 470.0574162679426,177.4354066985646 565,183 C 659.9425837320574,188.5645933014354 729.2153110047847,236.3827751196172 823,233 C 916.7846889952153,229.6172248803828 1035.0813397129189,175.0334928229665 1142,161 C 1248.9186602870811,146.9665071770335 1344.4593301435407,173.48325358851673 1440,200 C 1440,200 1440,600 1440,600 Z" stroke="none" stroke-width="0" fill="url(#gradient)" fill-opacity="0.53" class="transition-all duration-300 ease-in-out delay-150 path-0"></path><defs><linearGradient id="gradient" x1="0%" y1="50%" x2="100%" y2="50%"><stop offset="5%" stop-color="#111121"></stop><stop offset="95%" stop-color="#8ED1FC"></stop></linearGradient></defs><path d="M 0,600 C 0,600 0,400 0,400 C 103.02392344497608,361.88516746411483 206.04784688995215,323.77033492822966 290,341 C 373.95215311004785,358.22966507177034 438.83253588516743,430.80382775119614 546,455 C 653.1674641148326,479.19617224880386 802.622009569378,455.0143540669856 897,426 C 991.377990430622,396.9856459330144 1030.6794258373207,363.1387559808613 1112,358 C 1193.3205741626793,352.8612440191387 1316.6602870813397,376.43062200956933 1440,400 C 1440,400 1440,600 1440,600 Z" stroke="none" stroke-width="0" fill="url(#gradient)" fill-opacity="1" class="transition-all duration-300 ease-in-out delay-150 path-1"></path></svg>