<svg xmlns:xlink="http://www.w3.org/1999/xlink" xmlns="http://www.w3.org/2000/svg" width="24" height="24" fill="none" viewBox="0 0 24 24"><path fill="#6294F8" fill-rule="evenodd" d="M16.295 9.605l-4.568 6a1 1 0 01-.789.395h-.007c-.307 0-.597-.142-.787-.383l-2.432-3.108a1 1 0 111.575-1.232l1.633 2.087 3.784-4.97a1 1 0 011.591 1.211zM12 2C6.477 2 2 6.477 2 12s4.477 10 10 10 10-4.477 10-10S17.523 2 12 2z" clip-rule="evenodd"></path><mask id="mask0_9507_68408" width="20" height="21" x="2" y="2" maskUnits="userSpaceOnUse" style="mask-type: alpha;" fill="none"><path fill="#FFFFFF" fill-rule="evenodd" d="M16.295 9.605l-4.568 6a1 1 0 01-.789.395h-.007c-.307 0-.597-.142-.787-.383l-2.432-3.108a1 1 0 111.575-1.232l1.633 2.087 3.784-4.97a1 1 0 011.591 1.211zM12 2C6.477 2 2 6.477 2 12s4.477 10 10 10 10-4.477 10-10S17.523 2 12 2z" clip-rule="evenodd"></path></mask><g mask="url(#mask0_9507_68408)" fill="none"><path fill="#6294F8" d="M0 0H24V24H0z"></path></g></svg>