<svg width="16" height="16" viewBox="0 0 16 16" fill="none" xmlns="http://www.w3.org/2000/svg">
<g clip-path="url(#clip0_2127_4)">
<rect width="16" height="16" fill="black"/>
<path d="M6.77539 9.77344C6.55208 9.42708 6.2832 8.96224 5.96875 8.37891C5.65885 7.79557 5.35352 7.1735 5.05273 6.5127C4.75651 5.85189 4.52409 5.24805 4.35547 4.70117L3.31641 4.55762C3.24805 4.27962 3.20247 4.04948 3.17969 3.86719C3.1569 3.68034 3.14779 3.46615 3.15234 3.22461C3.24349 3.11068 3.40755 2.98991 3.64453 2.8623C3.87695 2.73014 4.14583 2.62077 4.45117 2.53418C4.75651 2.44759 5.05729 2.4043 5.35352 2.4043C6.20117 2.4043 6.7321 2.72331 6.94629 3.36133C7.03288 3.56185 7.16504 3.92871 7.34277 4.46191C7.52507 4.99056 7.70964 5.58757 7.89648 6.25293C8.08333 6.91829 8.22917 7.54492 8.33398 8.13281C8.61198 7.57682 8.8877 6.96159 9.16113 6.28711C9.43457 5.61263 9.61686 5.07943 9.70801 4.6875H9.69434L8.86035 4.54395C8.79199 4.26595 8.74642 4.03581 8.72363 3.85352C8.70085 3.66667 8.69173 3.45247 8.69629 3.21094C8.78743 3.09701 8.94922 2.97624 9.18164 2.84863C9.41862 2.71647 9.68978 2.6071 9.99512 2.52051C10.3005 2.43392 10.6012 2.39062 10.8975 2.39062C11.7725 2.39062 12.3079 2.72786 12.5039 3.40234C12.554 3.57096 12.5791 3.7373 12.5791 3.90137C12.5791 4.389 12.3763 5.00651 11.9707 5.75391C11.5651 6.5013 11.098 7.22819 10.5693 7.93457C10.0407 8.64095 9.58724 9.19922 9.20898 9.60938C9.11328 10.1973 9.02669 10.6576 8.94922 10.9902L8.96289 11.0039L9.97461 10.5801C10.3301 10.8854 10.5374 11.291 10.5967 11.7969C10.5967 11.8242 10.4873 11.9541 10.2686 12.1865C10.0544 12.4189 9.77409 12.6354 9.42773 12.8359C9.08138 13.0319 8.69173 13.1299 8.25879 13.1299C7.81217 13.1299 7.44987 13.0046 7.17188 12.7539C6.89388 12.5033 6.75716 12.0749 6.76172 11.4688L6.77539 9.77344Z" fill="white"/>
</g>
<defs>
<clipPath id="clip0_2127_4">
<rect width="16" height="16" fill="white"/>
</clipPath>
</defs>
</svg>
