<svg width="47" height="47" viewBox="0 0 47 47" fill="none" xmlns="http://www.w3.org/2000/svg">
<path d="M45.5475 22.931L35.0687 12.4526C34.4657 11.8491 33.4869 11.8491 32.8829 12.4526L30.7071 14.6287L33.4673 17.3889C34.109 17.1724 34.8444 17.3176 35.3556 17.8289C35.8695 18.3434 36.0136 19.085 35.7918 19.7288L38.452 22.3892C39.0955 22.1673 39.8383 22.3107 40.3521 22.8255C41.0707 23.5436 41.0707 24.7077 40.3521 25.4262C40.1813 25.5971 39.9785 25.7326 39.7553 25.8251C39.5321 25.9176 39.2929 25.9652 39.0513 25.9652C38.8097 25.9652 38.5705 25.9176 38.3473 25.8251C38.1242 25.7326 37.9214 25.5971 37.7506 25.4262C37.494 25.1695 37.3191 24.8425 37.2479 24.4866C37.1767 24.1307 37.2123 23.7616 37.3504 23.4259L34.8697 20.9452L34.8693 27.4742C35.0493 27.5629 35.2136 27.6802 35.3558 27.8218C36.0741 28.5399 36.0741 29.7036 35.3558 30.4232C34.6373 31.1413 33.4728 31.1413 32.7551 30.4232C32.0368 29.7038 32.0368 28.54 32.7551 27.8218C32.9272 27.6494 33.1319 27.513 33.3572 27.4206V20.8311C33.1317 20.739 32.927 20.6025 32.7551 20.4298C32.211 19.886 32.08 19.0875 32.3591 18.419L29.6379 15.6978L22.4527 22.8826C22.1628 23.1725 22 23.5657 22 23.9758C22 24.3858 22.1628 24.779 22.4527 25.069L32.9317 35.5474C33.5352 36.1509 34.5136 36.1509 35.118 35.5474L45.5477 25.1176C45.8376 24.8276 46.0003 24.4343 46.0003 24.0243C46.0003 23.6143 45.8374 23.221 45.5475 22.931Z" fill="#F34F29"/>
<path fill-rule="evenodd" clip-rule="evenodd" d="M11.7911 11C5.27993 11 0 16.2788 0 22.7911C0 28.001 3.37852 32.4206 8.06351 33.9799C8.65259 34.0893 8.86894 33.7241 8.86894 33.4127C8.86894 33.1315 8.858 32.2027 8.85293 31.2174C5.57262 31.9307 4.88044 29.8262 4.88044 29.8262C4.34407 28.4633 3.57124 28.101 3.57124 28.101C2.50124 27.3691 3.65188 27.3844 3.65188 27.3844C4.83572 27.4673 5.45937 28.5994 5.45937 28.5994C6.51102 30.4017 8.21776 29.8807 8.89061 29.5796C8.99644 28.8175 9.30202 28.2972 9.63923 28.0027C7.02025 27.705 4.26694 26.6937 4.26694 22.1757C4.26694 20.8884 4.72774 19.8365 5.48202 19.0106C5.3594 18.7138 4.9558 17.5145 5.59605 15.8904C5.59605 15.8904 6.586 15.5735 8.83926 17.099C9.78001 16.8376 10.7889 16.7062 11.7911 16.7017C12.7928 16.7062 13.8023 16.8372 14.7448 17.0986C16.9953 15.5731 17.9841 15.89 17.9841 15.89C18.6259 17.514 18.2223 18.7134 18.0999 19.0102C18.8559 19.8361 19.3134 20.888 19.3134 22.1753C19.3134 26.7041 16.555 27.7011 13.9294 27.9932C14.3525 28.3591 14.7294 29.0768 14.7294 30.1767C14.7294 31.7544 14.7157 33.0241 14.7157 33.4125C14.7157 33.7263 14.9281 34.094 15.5256 33.9782C20.2079 32.4173 23.5825 27.999 23.5825 22.7911C23.5823 16.2791 18.3029 11 11.7911 11Z" fill="white"/>
<path d="M4.46596 27.9293C4.43999 27.9879 4.34783 28.0055 4.26387 27.9655C4.17795 27.9272 4.13012 27.8473 4.15784 27.7886C4.18323 27.728 4.27558 27.7114 4.36091 27.7518C4.44682 27.7903 4.49564 27.871 4.46576 27.9295L4.46596 27.9293ZM4.94355 28.4622C4.88752 28.5143 4.77759 28.4901 4.703 28.4075C4.62568 28.3255 4.61123 28.2156 4.66844 28.1627C4.72662 28.1107 4.83323 28.1353 4.91056 28.2173C4.98749 28.3005 5.00272 28.4095 4.94375 28.4624L4.94355 28.4622ZM5.40866 29.1411C5.33641 29.1915 5.21808 29.1444 5.14506 29.0396C5.07281 28.9345 5.07281 28.8086 5.14701 28.7584C5.21984 28.708 5.33641 28.7535 5.41061 28.8574C5.48246 28.9638 5.48246 29.0899 5.40866 29.1411ZM6.04539 29.7974C5.98095 29.8686 5.8431 29.8495 5.74235 29.7524C5.63945 29.6574 5.61075 29.522 5.67538 29.451C5.74098 29.3795 5.87942 29.3994 5.98076 29.4959C6.08366 29.5908 6.1147 29.7263 6.04578 29.7972L6.04539 29.7974ZM6.92404 30.1783C6.89534 30.2707 6.76295 30.3126 6.6292 30.2732C6.49584 30.2328 6.40856 30.1248 6.4359 30.0315C6.46324 29.9383 6.5966 29.8948 6.73113 29.9368C6.86449 29.977 6.95177 30.0844 6.92404 30.1783ZM7.88919 30.2488C7.89251 30.346 7.77926 30.4265 7.63926 30.4284C7.49809 30.4317 7.38387 30.3529 7.3825 30.2572C7.3825 30.159 7.49341 30.0795 7.63438 30.0768C7.77438 30.0742 7.88939 30.1523 7.88939 30.2486L7.88919 30.2488ZM8.78698 30.0961C8.80377 30.1908 8.70634 30.2882 8.56712 30.3142C8.43044 30.3396 8.30353 30.2806 8.28595 30.1867C8.26916 30.0895 8.36835 29.992 8.50503 29.9668C8.64444 29.9428 8.76941 29.9998 8.78698 30.0961Z" fill="white"/>
</svg>
