<svg width="13" height="15" viewBox="0 0 13 15" fill="none" xmlns="http://www.w3.org/2000/svg">
<path d="M2.25781 3.11684C2.67771 3.45796 2.83523 3.43193 3.62369 3.37933L11.0571 2.93299C11.2147 2.93299 11.0836 2.77571 11.0311 2.74957L9.7965 1.85711C9.56 1.67347 9.2448 1.46315 8.64083 1.51576L1.44308 2.04074C1.18059 2.06677 1.12815 2.19801 1.2327 2.30322L2.25781 3.11684ZM2.7041 4.84917V12.6704C2.7041 13.0907 2.91415 13.248 3.38693 13.222L11.5562 12.7493C12.0292 12.7233 12.0819 12.4341 12.0819 12.0927V4.32397C12.0819 3.98306 11.9508 3.79921 11.6612 3.82545L3.12422 4.32397C2.80918 4.35044 2.7041 4.50803 2.7041 4.84917ZM10.7688 5.26872C10.8212 5.50518 10.7688 5.74142 10.5319 5.76799L10.1383 5.84641V11.6205C9.7965 11.8042 9.4814 11.9092 9.2188 11.9092C8.79835 11.9092 8.69305 11.7779 8.37812 11.3844L5.80345 7.34249V11.2532L6.61816 11.437C6.61816 11.437 6.61816 11.9092 5.96086 11.9092L4.14879 12.0143C4.09615 11.9092 4.14879 11.647 4.33259 11.5944L4.80546 11.4634V6.29276L4.1489 6.24015C4.09625 6.00369 4.22739 5.66278 4.5954 5.63631L6.53935 5.50528L9.2188 9.5998V5.97765L8.53564 5.89924C8.4832 5.61018 8.69305 5.40028 8.95576 5.37425L10.7688 5.26872ZM0.838738 1.33212L8.32557 0.780787C9.245 0.701932 9.4815 0.754753 10.0594 1.17452L12.4492 2.85424C12.8436 3.14309 12.975 3.22173 12.975 3.53661V12.7493C12.975 13.3266 12.7647 13.6681 12.0293 13.7203L3.33492 14.2454C2.78291 14.2717 2.52019 14.193 2.23111 13.8253L0.471158 11.5419C0.155798 11.1216 0.0246582 10.8071 0.0246582 10.4392V2.25041C0.0246582 1.77825 0.235038 1.38441 0.838738 1.33212Z" fill="white"/>
</svg>
