<svg width="256" height="256" viewBox="0 0 256 256" fill="none" xmlns="http://www.w3.org/2000/svg">
<g clip-path="url(#clip0_13_2)">
<rect width="256" height="256" rx="60" fill="#00223D"/>
<path d="M153.381 151.176L149.142 158.427C148.515 159.5 147.611 160.392 146.523 161.011C145.434 161.631 144.199 161.957 142.942 161.957H110.467C109.21 161.957 107.975 161.631 106.887 161.011C105.798 160.392 104.895 159.5 104.267 158.427L100.028 151.176H153.381ZM165.249 130.876L157.774 143.661H95.6353L88.161 130.876H165.249ZM158.049 111.025L165.261 123.361H88.1489L95.3608 111.025H158.049ZM142.941 92.2594C144.199 92.2592 145.434 92.5854 146.522 93.2051C147.611 93.8249 148.515 94.7163 149.142 95.7895L153.656 103.511H99.754L104.268 95.7895C104.896 94.7164 105.799 93.8251 106.888 93.2054C107.976 92.5856 109.211 92.2593 110.468 92.2594H142.941Z" fill="#00435B"/>
<path d="M63.2054 88.8943C59.6081 71.7104 58.8355 58.5305 61.1612 48.9606C62.5442 43.2686 65.0718 38.6253 68.9169 35.2746C72.976 31.7376 78.1074 30.0019 83.8741 30.0019C93.3857 30.0019 103.386 34.2753 114.072 42.3927C118.431 45.7043 122.955 49.6953 127.653 54.3685C128.027 53.8948 128.45 53.4474 128.921 53.0333C142.203 41.3739 153.386 34.1282 162.951 31.3354C168.639 29.6736 173.978 29.5155 178.84 31.1279C183.973 32.8287 188.063 36.347 190.949 41.2735C195.71 49.4045 196.966 60.0885 195.191 73.2812C194.467 78.6585 193.23 84.5154 191.482 90.8622C192.142 90.9404 192.803 91.085 193.457 91.2984C210.309 96.8007 222.243 102.716 229.468 109.478C233.767 113.501 236.574 117.979 237.589 122.937C238.66 128.17 237.615 133.418 234.733 138.341C229.98 146.461 221.24 152.864 208.79 157.936C203.792 159.972 198.135 161.817 191.814 163.476C192.103 164.117 192.327 164.799 192.477 165.513C196.074 182.697 196.846 195.877 194.521 205.447C193.138 211.139 190.609 215.782 186.764 219.133C182.706 222.67 177.574 224.405 171.808 224.405C162.295 224.405 152.296 220.132 141.61 212.015C137.204 208.667 132.63 204.627 127.878 199.889C127.378 200.659 126.772 201.358 126.079 201.966C112.797 213.627 101.614 220.871 92.0485 223.665C86.3612 225.326 81.0218 225.485 76.1598 223.872C71.0268 222.171 66.9374 218.653 64.0514 213.726C59.2896 205.596 58.0344 194.912 59.8093 181.719C60.5595 176.148 61.8604 170.06 63.7096 163.447C62.9725 163.374 62.2459 163.22 61.5427 162.991C44.6906 157.488 32.7566 151.573 25.5318 144.811C21.2327 140.788 18.4262 136.31 17.411 131.352C16.3405 126.119 17.3851 120.87 20.2667 115.947C25.0199 107.828 33.7598 101.425 46.21 96.3534C51.3578 94.2554 57.203 92.3623 63.7519 90.6649C63.5148 90.0925 63.3319 89.4998 63.2054 88.8943Z" fill="#002B3B"/>
<path d="M180.719 167.203C181.523 167.062 182.351 167.232 183.032 167.677C183.713 168.122 184.193 168.808 184.375 169.593L184.394 169.688L184.573 170.602C190.366 200.602 186.285 215.603 172.332 215.603C158.681 215.603 141.302 202.803 120.197 177.203C119.822 176.748 119.584 176.199 119.51 175.617C119.436 175.036 119.529 174.445 119.779 173.913C120.029 173.381 120.425 172.929 120.923 172.608C121.42 172.287 121.999 172.109 122.594 172.096H122.692L123.804 172.104C132.686 172.151 141.319 171.846 149.706 171.189C159.605 170.412 169.943 169.084 180.719 167.203ZM84.8936 144.525L84.9471 144.615L85.5048 145.573C89.974 153.227 94.6297 160.491 99.4727 167.367C105.177 175.463 111.591 183.66 118.715 191.956C119.244 192.572 119.511 193.365 119.462 194.17C119.412 194.975 119.049 195.73 118.448 196.278L118.368 196.349L117.652 196.957C94.078 216.854 78.7565 220.827 71.6871 208.873C64.7662 197.174 67.2757 175.899 79.2141 145.051C79.4254 144.504 79.7879 144.027 80.2605 143.673C80.733 143.319 81.2967 143.102 81.8878 143.047C82.4789 142.993 83.0738 143.102 83.605 143.363C84.1362 143.625 84.5826 144.027 84.8936 144.525ZM192.68 100.257L192.777 100.288L193.664 100.589C222.761 110.561 233.816 121.519 226.828 133.463C219.994 145.144 200.127 153.65 167.226 158.979C166.63 159.076 166.018 159.003 165.462 158.77C164.907 158.536 164.43 158.151 164.088 157.66C163.746 157.169 163.553 156.593 163.532 155.998C163.511 155.403 163.663 154.814 163.969 154.301C168.681 146.404 172.926 138.548 176.702 130.73C180.984 121.864 185.002 112.347 188.758 102.181C189.03 101.442 189.575 100.831 190.284 100.469C190.993 100.108 191.814 100.022 192.584 100.229L192.68 100.257ZM89.9006 95.2368C90.2607 95.4451 90.5756 95.7213 90.8274 96.0496C91.0791 96.3779 91.2627 96.7518 91.3677 97.1499C91.4727 97.5481 91.4971 97.9628 91.4394 98.3702C91.3817 98.7777 91.2431 99.17 91.0315 99.5247C86.318 107.421 82.0741 115.278 78.2981 123.096C74.0162 131.962 69.9977 141.478 66.2424 151.645C65.9636 152.4 65.401 153.021 64.671 153.379C63.9409 153.737 63.0992 153.805 62.3196 153.569L62.223 153.537L61.3355 153.235C32.2386 143.265 21.1843 132.306 28.1717 120.363C35.0054 108.68 54.873 100.175 87.7735 94.8464C88.5073 94.7274 89.26 94.8651 89.9006 95.2368ZM183.313 46.1261C190.234 57.8263 187.724 79.1007 175.786 109.949C175.574 110.496 175.212 110.973 174.739 111.327C174.267 111.681 173.703 111.898 173.112 111.953C172.521 112.007 171.926 111.898 171.395 111.637C170.864 111.375 170.417 110.973 170.106 110.475L170.053 110.386L169.495 109.427C165.026 101.773 160.37 94.5088 155.527 87.6331C149.823 79.537 143.408 71.3405 136.285 63.0437C135.756 62.428 135.489 61.6351 135.538 60.8301C135.588 60.0251 135.951 59.2699 136.551 58.7218L136.632 58.6512L137.348 58.0432C160.922 38.1456 176.243 34.1733 183.313 46.1261ZM83.8611 39.0063C97.513 39.0063 114.892 51.8053 135.996 77.4049C136.371 77.8599 136.609 78.4094 136.683 78.9909C136.757 79.5725 136.664 80.1627 136.414 80.6946C136.164 81.2266 135.768 81.6788 135.27 82C134.773 82.3213 134.194 82.4986 133.599 82.5118H133.501L132.389 82.505C123.508 82.4574 114.874 82.7627 106.488 83.42C96.5876 84.1965 86.2498 85.5249 75.4743 87.406C74.6701 87.5462 73.842 87.3762 73.1616 86.9314C72.4811 86.4865 72.0004 85.8008 71.8192 85.0163L71.7985 84.9202L71.6198 84.0068C65.8272 54.0062 69.907 39.0063 83.8611 39.0063Z" fill="#FF4154"/>
<path d="M113.079 92.6514H140.338C142.296 92.6513 144.22 93.1604 145.915 94.1273C147.61 95.0942 149.015 96.4845 149.99 98.158L163.677 121.652C164.645 123.313 165.154 125.194 165.154 127.109C165.154 129.024 164.645 130.906 163.677 132.566L149.99 156.06C149.015 157.734 147.61 159.124 145.915 160.091C144.22 161.058 142.296 161.567 140.338 161.567H113.079C109.092 161.567 105.41 159.466 103.426 156.06L89.74 132.566C88.7725 130.906 88.2634 129.024 88.2634 127.109C88.2634 125.194 88.7725 123.313 89.74 121.652L103.426 98.158C104.401 96.4845 105.807 95.0942 107.502 94.1273C109.197 93.1605 111.12 92.6514 113.079 92.6514ZM136.184 99.7423C140.172 99.7423 143.856 101.845 145.839 105.254L155.384 121.657C156.35 123.317 156.858 125.196 156.858 127.109C156.858 129.022 156.35 130.902 155.384 132.561L145.839 148.964C144.865 150.639 143.459 152.03 141.763 152.998C140.068 153.966 138.143 154.475 136.184 154.475H117.235C113.246 154.475 109.562 152.373 107.579 148.964L98.0344 132.561C97.0688 130.902 96.5607 129.022 96.5607 127.109C96.5607 125.196 97.0688 123.317 98.0344 121.657L107.579 105.254C108.553 103.579 109.959 102.188 111.655 101.22C113.35 100.253 115.274 99.7432 117.234 99.7432L136.184 99.7423ZM131.706 107.498H121.712C119.755 107.498 117.832 108.007 116.137 108.973C114.443 109.939 113.037 111.328 112.062 113.001L107.019 121.647C106.049 123.309 105.539 125.192 105.539 127.109C105.539 129.026 106.049 130.909 107.019 132.572L112.062 141.219C113.037 142.891 114.443 144.28 116.137 145.246C117.832 146.212 119.755 146.721 121.712 146.721H131.706C135.691 146.721 139.372 144.622 141.356 141.219L146.4 132.572C147.369 130.909 147.879 129.026 147.879 127.109C147.879 125.192 147.369 123.309 146.4 121.647L141.356 113C140.381 111.327 138.975 109.938 137.281 108.972C135.587 108.006 133.664 107.498 131.706 107.498ZM127.395 114.921C131.376 114.921 135.054 117.016 137.04 120.415L137.756 121.639C138.728 123.303 139.239 125.189 139.239 127.108C139.239 129.028 138.728 130.914 137.756 132.577L137.04 133.802C136.064 135.472 134.659 136.859 132.965 137.824C131.272 138.788 129.351 139.296 127.395 139.296H126.024C124.068 139.296 122.146 138.788 120.453 137.824C118.76 136.859 117.354 135.472 116.378 133.802L115.663 132.577C114.691 130.914 114.179 129.028 114.179 127.108C114.179 125.189 114.691 123.303 115.663 121.639L116.378 120.415C117.354 118.745 118.76 117.358 120.453 116.393C122.146 115.429 124.068 114.921 126.024 114.921H127.395ZM126.711 122.234C125.841 122.233 124.987 122.458 124.234 122.886C123.481 123.314 122.856 123.93 122.42 124.671C121.986 125.412 121.757 126.253 121.757 127.108C121.757 127.964 121.986 128.805 122.42 129.546C122.855 130.287 123.48 130.903 124.233 131.331C124.986 131.759 125.84 131.984 126.71 131.984C127.579 131.984 128.433 131.759 129.186 131.331C129.939 130.903 130.564 130.287 130.999 129.546C131.433 128.805 131.662 127.964 131.662 127.108C131.662 126.253 131.433 125.412 130.999 124.671C130.564 123.93 129.939 123.314 129.186 122.887C128.434 122.459 127.58 122.234 126.711 122.234ZM86.5605 127.108H95.4696Z" fill="#FFD94C"/>
</g>
<defs>
<clipPath id="clip0_13_2">
<rect width="256" height="256" rx="60" fill="white"/>
</clipPath>
</defs>
</svg>
